<svg width="90" height="55" viewBox="0 0 90 55" fill="none" xmlns="http://www.w3.org/2000/svg"><path d="M42.24.02a1 1 0 00-.13.06l-41.5 16a1 1 0 000 1.85l15.56 6v16.53a1 1 0 00.63.9l25.28 10.57c.24.1.51.1.75 0l25.31-10.57a1 1 0 00.6-.9V24.02v-.06l7.12-2.75a1 1 0 00-.72-1.88L42.46 31.96 3.74 17.02 42.49 2.05l40.43 15.63V42.1a6.03 6.03 0 00-5.06 5.91c0 3.3 2.73 6 6.06 6 3.34 0 6.07-2.7 6.07-6 0-2.96-2.2-5.43-5.07-5.9v-25.1a1 1 0 00-.62-.94L42.83.08a1 1 0 00-.6-.06zM18.17 24.71l23.94 9.22a1 1 0 00.72 0l23.9-9.22v15.06L42.47 49.93 18.17 39.77V24.71zm65.75 19.28a4.02 4.02 0 110 8.03 4.02 4.02 0 110-8.03z" fill="#fff"/></svg>