<svg width="26" height="26" viewBox="0 0 26 26" fill="none" xmlns="http://www.w3.org/2000/svg">
<path d="M25.7508 2.2523V23.1516C25.7167 23.1869 25.688 23.2271 25.6657 23.2708C25.5223 23.8849 25.1632 24.4271 24.6537 24.7986C24.1443 25.1702 23.5183 25.3465 22.8898 25.2954C21.2169 25.2976 19.5441 25.2976 17.8716 25.2954C17.7075 25.2954 17.5435 25.2808 17.3828 25.273V15.3306H20.073C21.0551 15.3306 21.064 15.3306 21.1978 14.376C21.298 13.6604 21.3719 12.941 21.4649 12.16H17.3481C17.3481 11.4881 17.3481 10.8773 17.3481 10.2636C17.3201 9.88698 17.3741 9.50873 17.5063 9.15493C17.6385 8.80112 17.8458 8.48016 18.1139 8.21412C18.382 7.94809 18.7046 7.7433 19.0594 7.61385C19.4142 7.4844 19.7929 7.43336 20.1693 7.46424C20.6217 7.46424 21.0741 7.46424 21.5046 7.46424V4.30594H20.2903C16.6544 4.30594 14.1931 6.77334 14.1875 10.4171C14.1875 10.9909 14.1875 11.5654 14.1875 12.1986H11.0808V15.3339H14.1512V25.2439C14.1099 25.2629 14.0664 25.277 14.0218 25.2858C10.3691 25.2858 6.71648 25.3116 3.06437 25.2797C2.38769 25.2644 1.74452 24.9821 1.27524 24.4943C0.805949 24.0066 0.548642 23.353 0.559459 22.6762C0.547889 16.0196 0.547889 9.36298 0.559459 2.70636C0.550038 2.3194 0.63431 1.9359 0.805108 1.58855C0.975907 1.2412 1.22816 0.940302 1.54036 0.711496C1.90904 0.476873 2.29627 0.272772 2.6982 0.101227H23.5958C24.1118 0.239899 24.5824 0.511534 24.9605 0.889001C25.3387 1.26647 25.6112 1.73655 25.7508 2.2523ZM13.1534 11.1354C13.1534 10.7401 13.1534 10.4176 13.1534 10.0946C13.1325 8.56098 13.6403 7.06697 14.5915 5.86378C15.5426 4.66059 16.879 3.82162 18.376 3.48795C19.761 3.28756 21.1584 3.18522 22.5578 3.1817V8.50058C21.6788 8.50058 20.8289 8.48882 19.9823 8.50394C19.6019 8.49716 19.2324 8.63107 18.9446 8.87998C18.6569 9.12888 18.4711 9.47527 18.423 9.85269C18.3928 10.2841 18.3897 10.717 18.4135 11.1488H22.663L22.0052 16.3876H18.4264V24.2193C18.6246 24.2288 18.7914 24.2428 18.9588 24.2433C20.2563 24.2433 21.5535 24.2433 22.8506 24.2433C24.0941 24.24 24.7016 23.6319 24.7021 22.3823C24.7021 15.9302 24.7021 9.47794 24.7021 3.02549C24.7021 1.74952 24.098 1.15212 22.8114 1.15212C16.3761 1.15212 9.94103 1.15212 3.50612 1.15212C2.19655 1.15212 1.60978 1.74672 1.60978 3.0714C1.60978 9.49138 1.60978 15.9095 1.60978 22.3257C1.60978 23.6487 2.19767 24.2428 3.50779 24.2439C6.52892 24.2439 9.55022 24.2439 12.5717 24.2439H13.1266V16.3686H10.0383V11.1359L13.1534 11.1354Z" fill="white"/>
</svg>