<svg width="411" height="48" viewBox="0 0 411 48" fill="none" xmlns="http://www.w3.org/2000/svg"><mask id="a" maskUnits="userSpaceOnUse" x="0" y="0" width="411" height="48"><path fill="#C4C4C4" d="M0 0h411v47.79H0z"/></mask><g mask="url(#a)"><path fill-rule="evenodd" clip-rule="evenodd" d="M101.64 38.67a8.62 8.62 0 018.6-8.61h51.69a8.62 8.62 0 110 17.23h-51.68a8.62 8.62 0 01-8.61-8.62z" fill="#C0E914"/><path fill-rule="evenodd" clip-rule="evenodd" d="M34.7 1.74a8.62 8.62 0 008.62 8.62h26.7A31.5 31.5 0 0093 .46a31.5 31.5 0 0022.97 9.9h26.42a31.59 31.59 0 0031.6-31.6 8.62 8.62 0 00-17.24 0A14.36 14.36 0 01142.4-6.86h-26.42a14.36 14.36 0 01-14.36-14.36v-58.02a31.02 31.02 0 00-31.01-31.02v17.23a13.79 13.79 0 0113.78 13.79v58.02A14.36 14.36 0 0170.02-6.87h-26.7a8.61 8.61 0 00-8.62 8.61z" fill="#173EFF"/><path fill-rule="evenodd" clip-rule="evenodd" d="M43.07 10.36a8.61 8.61 0 110-17.23 8.61 8.61 0 010 17.23zM188.5 13.31a8.61 8.61 0 110-17.22 8.61 8.61 0 010 17.22z" fill="#2D1DB2"/><path d="M190.23 29.56a39.62 39.62 0 0039.62-39.63 8.62 8.62 0 0117.23 0 56.87 56.87 0 01-56.85 56.87 8.62 8.62 0 010-17.24zM362-40.6a8.63 8.63 0 018.62 8.64 14.38 14.38 0 0014.36 14.4h57.45a14.37 14.37 0 0014.36-14.4 8.62 8.62 0 1117.24 0 31.67 31.67 0 01-13.18 25.74 17.6 17.6 0 0017.2 12.84h33.32a8.64 8.64 0 010 17.28h-33.32A34.9 34.9 0 01444.6-.36c-.72.05-1.44.07-2.17.07h-57.45a31.63 31.63 0 01-31.6-31.67A8.62 8.62 0 01362-40.6z" fill="#E5E0D5"/><path fill-rule="evenodd" clip-rule="evenodd" d="M425.26-23.34a14.38 14.38 0 100 28.75 8.63 8.63 0 010 17.26 31.63 31.63 0 010-63.27 8.63 8.63 0 010 17.26zM386.11-71.1a39.68 39.68 0 00-39.65 39.71 31.6 31.6 0 01-63.2 0 8.62 8.62 0 0117.23 0 14.38 14.38 0 1028.73 0 56.93 56.93 0 0156.89-56.97 8.63 8.63 0 010 17.27z" fill="#C0E914"/><path fill-rule="evenodd" clip-rule="evenodd" d="M17.72-10.07a39.63 39.63 0 0039.62 39.63 8.62 8.62 0 010 17.24A56.85 56.85 0 01.49-10.07a8.61 8.61 0 0117.23 0z" fill="#173EFF"/><path fill-rule="evenodd" clip-rule="evenodd" d="M93.02 38.67a8.62 8.62 0 10-17.23 0 8.62 8.62 0 0017.23 0zM118.86 38.67a8.6 8.6 0 10-17.21 0 8.6 8.6 0 0017.21 0zM196.63 38.18a8.6 8.6 0 10-17.22 0 8.6 8.6 0 0017.22 0z" fill="#2D1DB2"/><path fill-rule="evenodd" clip-rule="evenodd" d="M274.14 45.56a8.6 8.6 0 01-8.6-8.6V12.31a8.62 8.62 0 1117.22 0v24.65a8.6 8.6 0 01-8.62 8.6z" fill="#173EFF"/><path fill-rule="evenodd" clip-rule="evenodd" d="M315.49 38.67a8.62 8.62 0 018.62-8.61h68.4a8.61 8.61 0 110 17.23h-68.4a8.62 8.62 0 01-8.62-8.62z" fill="#C0E914"/><path fill-rule="evenodd" clip-rule="evenodd" d="M394.73 47.29a8.61 8.61 0 110-17.23 8.61 8.61 0 010 17.23z" fill="#2D1DB2"/></g></svg>