<svg width="26" height="25" viewBox="0 0 26 25" fill="none" xmlns="http://www.w3.org/2000/svg">
<path d="M25.1948 12.4621C25.1948 14.9883 25.2628 17.5169 25.176 20.0402C25.1375 21.305 24.6108 22.5058 23.7063 23.3909C22.8019 24.276 21.59 24.7766 20.3246 24.7878C15.3527 24.8366 10.3804 24.8366 5.40763 24.7878C4.11728 24.7794 2.88211 24.2633 1.96929 23.3513C1.05647 22.4392 0.539369 21.2045 0.529846 19.9141C0.480611 14.9422 0.480611 9.96985 0.529846 4.99713C0.547935 3.73382 1.04978 2.52556 1.93203 1.62117C2.81428 0.71679 4.00975 0.185162 5.27222 0.13578C6.79616 0.0630997 8.32889 0.102948 9.85752 0.101776C13.2043 0.0982593 16.5517 0.0912258 19.8991 0.101776C22.5619 0.11174 24.5776 1.68726 25.101 4.16777C25.1854 4.62641 25.2235 5.09239 25.2147 5.55866C25.2253 7.85981 25.2194 10.1609 25.2194 12.4621H25.1948ZM24.2206 12.4498C24.2206 10.0834 24.2206 7.71696 24.2206 5.35056C24.247 4.78557 24.1553 4.22129 23.9514 3.69374C23.7474 3.16618 23.4356 2.68696 23.036 2.28669C22.6364 1.88641 22.1577 1.57388 21.6305 1.36904C21.1033 1.16419 20.5392 1.07155 19.9741 1.09702C15.2257 1.09351 10.4769 1.09351 5.72765 1.09702C5.16688 1.07459 4.60753 1.16829 4.08469 1.37227C3.56185 1.57625 3.08681 1.88609 2.68939 2.28236C2.29197 2.67862 1.98075 3.15277 1.77525 3.67501C1.56975 4.19725 1.4744 4.75633 1.4952 5.31717C1.4913 10.0664 1.4913 14.8152 1.4952 19.5636C1.47076 20.1286 1.56394 20.6925 1.76883 21.2196C1.97371 21.7467 2.28586 22.2255 2.68546 22.6257C3.08506 23.0258 3.56341 23.3386 4.09022 23.5442C4.61703 23.7498 5.18081 23.8438 5.74583 23.8201C10.4786 23.8201 15.2112 23.8201 19.9436 23.8201C20.5127 23.849 21.0815 23.7583 21.6133 23.5538C22.1452 23.3493 22.6283 23.0356 23.0314 22.6329C23.4346 22.2303 23.7489 21.7476 23.954 21.216C24.1591 20.6844 24.2506 20.1157 24.2224 19.5466C24.2239 17.1822 24.2234 14.8168 24.2206 12.4504V12.4498Z" fill="white"/>
<path d="M12.8378 22.9093C10.5203 22.9093 8.20273 22.9093 5.88517 22.9093C3.70828 22.9093 2.41001 21.6016 2.40942 19.4159C2.40942 16.4388 2.40942 13.4612 2.40942 10.4833C2.40942 9.75593 2.52664 9.63633 3.24231 9.63574C4.41691 9.63574 5.59171 9.63574 6.76671 9.63574C7.58729 9.63574 7.75728 9.89189 7.43081 10.6351C7.05938 11.4464 6.87604 12.3311 6.89449 13.2231C6.91295 14.1152 7.13271 14.9916 7.53736 15.7868C7.94201 16.582 8.5211 17.2755 9.23138 17.8155C9.94165 18.3555 10.7648 18.7281 11.6392 18.9054C12.7052 19.1671 13.8244 19.1114 14.8591 18.745C15.8938 18.3786 16.7987 17.7176 17.4624 16.8434C18.1711 16.0193 18.6302 15.0103 18.7859 13.9346C18.9416 12.8589 18.7875 11.7611 18.3416 10.7699C18.2883 10.6351 18.2191 10.5067 18.1716 10.3708C18.0339 9.97806 18.2009 9.65511 18.6089 9.64866C20.0086 9.62639 21.4088 9.63049 22.8085 9.64866C23.1549 9.65218 23.3102 9.90127 23.3108 10.2383C23.3108 10.8016 23.3108 11.3649 23.3108 11.9287C23.3108 14.4553 23.3108 16.9819 23.3108 19.5085C23.3407 19.9608 23.2741 20.4141 23.1153 20.8386C22.9565 21.2631 22.7091 21.6489 22.3898 21.9704C22.0704 22.292 21.6862 22.5419 21.2628 22.7035C20.8395 22.8652 20.3865 22.9349 19.9341 22.9081C17.5691 22.9157 15.2035 22.9093 12.8378 22.9093ZM19.426 10.6591C20.3438 14.0382 19.5684 16.8387 16.6899 18.865C15.5648 19.6523 14.2244 20.0739 12.8511 20.0724C11.4779 20.0708 10.1384 19.6461 9.01512 18.8562C6.14308 16.8276 5.37055 14.0253 6.29429 10.6656H3.41229V11.2084C3.41229 13.9616 3.41229 16.7144 3.41229 19.4669C3.41229 21.0454 4.27684 21.9064 5.86115 21.907C10.5295 21.907 15.199 21.907 19.8696 21.907C21.4481 21.907 22.315 21.0389 22.3162 19.4593C22.3185 16.706 22.3185 13.9532 22.3162 11.2007C22.3162 11.0296 22.3015 10.8578 22.2927 10.6621L19.426 10.6591Z" fill="white"/>
<path d="M12.819 17.6547C11.6055 17.6435 10.4457 17.1522 9.59358 16.2881C8.7414 15.4241 8.26615 14.2577 8.27178 13.0442C8.28876 11.831 8.78408 10.6735 9.65001 9.82361C10.5159 8.97371 11.6824 8.50011 12.8957 8.50579C14.1092 8.51863 15.2683 9.01137 16.1195 9.87631C16.9707 10.7413 17.4448 11.908 17.4383 13.1216C17.4257 14.3349 16.9323 15.4937 16.0662 16.3436C15.2002 17.1934 14.0323 17.665 12.819 17.6547ZM12.8647 9.50043C11.913 9.49747 10.9991 9.87237 10.3237 10.5428C9.64826 11.2131 9.26653 12.1242 9.26234 13.0758C9.26311 14.0281 9.64122 14.9413 10.3139 15.6154C10.9865 16.2895 11.8989 16.6695 12.8512 16.6723C13.8032 16.6731 14.7168 16.2968 15.3921 15.6258C16.0674 14.9548 16.4495 14.0436 16.4547 13.0917C16.4543 12.1398 16.0758 11.227 15.4026 10.554C14.7294 9.88105 13.8166 9.50294 12.8647 9.50279V9.50043Z" fill="white"/>
<path d="M19.2392 2.71127C19.6539 2.72764 20.0667 2.77526 20.4742 2.85371C20.8901 2.96267 21.2598 3.20288 21.5283 3.53867C21.7968 3.87445 21.9499 4.2879 21.9647 4.7176C21.9893 5.23046 21.9893 5.74744 21.9647 6.2603C21.9402 6.78009 21.7221 7.27188 21.3533 7.63902C20.9845 8.00616 20.4918 8.22211 19.9719 8.24436C19.4748 8.26839 18.9755 8.26663 18.4773 8.24436C17.9409 8.22514 17.4328 7.99912 17.0593 7.61365C16.6859 7.22819 16.4761 6.71318 16.4739 6.17648C16.4657 5.74275 16.4686 5.30842 16.4739 4.87468C16.4659 4.59256 16.5159 4.31181 16.6205 4.04971C16.7252 3.78761 16.8824 3.54972 17.0825 3.35067C17.2826 3.15163 17.5213 2.99564 17.784 2.89233C18.0466 2.78902 18.3276 2.74057 18.6097 2.74996C18.8184 2.74996 19.0276 2.74996 19.2363 2.74996L19.2392 2.71127ZM20.9835 5.50947C20.9835 5.34887 20.9835 5.18768 20.9835 5.02708C20.973 4.13441 20.5732 3.7376 19.6782 3.73115C19.3084 3.73115 18.9374 3.72059 18.5681 3.73466C18.4222 3.73021 18.2769 3.75538 18.141 3.80862C18.005 3.86187 17.8813 3.94209 17.7772 4.04446C17.6731 4.14684 17.5909 4.26923 17.5354 4.40427C17.4799 4.5393 17.4524 4.68418 17.4545 4.83014C17.4363 5.26388 17.4386 5.69937 17.4545 6.1337C17.4479 6.27951 17.4712 6.42514 17.5229 6.56163C17.5746 6.69813 17.6536 6.82263 17.7552 6.9275C17.8567 7.03237 17.9786 7.11537 18.1133 7.17148C18.2481 7.22759 18.3928 7.25562 18.5388 7.2538C18.9725 7.27724 19.4086 7.27372 19.8423 7.2573C19.9965 7.26536 20.1505 7.24041 20.2943 7.18418C20.438 7.12795 20.5681 7.04169 20.6758 6.93118C20.7835 6.82067 20.8664 6.68846 20.919 6.54335C20.9716 6.39824 20.9926 6.2436 20.9806 6.08973C20.9888 5.89631 20.9824 5.70289 20.983 5.50947H20.9835Z" fill="white"/>
</svg>