<svg width="25" height="25" viewBox="0 0 25 25" fill="none" xmlns="http://www.w3.org/2000/svg">
<path d="M0 23.2464V1.94988C0.0296451 1.8313 0.0539086 1.7111 0.0894828 1.59414C0.189665 1.25755 0.403111 0.96592 0.693673 0.768676C0.984234 0.571432 1.33405 0.480698 1.68386 0.511824H22.5901C22.657 0.511824 22.7238 0.511824 22.7901 0.511824C23.1163 0.522369 23.4303 0.638374 23.685 0.84245C23.9397 1.04653 24.1214 1.32768 24.2028 1.64373C24.2282 1.74399 24.2508 1.8453 24.2745 1.9461V23.2437C24.2276 23.4539 24.1658 23.6605 24.0896 23.8619C23.9745 24.0908 23.8065 24.2891 23.5997 24.4403C23.3929 24.5916 23.1531 24.6915 22.9001 24.7319H1.37338C1.14397 24.6954 0.925174 24.6097 0.73195 24.4808C0.538725 24.3518 0.375639 24.1826 0.253875 23.9848C0.149546 23.7459 0.0646431 23.499 0 23.2464ZM12.1243 23.7062H22.5416C23.0871 23.7062 23.2423 23.5536 23.2423 23.013C23.2423 16.0779 23.2423 9.14268 23.2423 2.20752C23.2423 1.67229 23.0806 1.51329 22.5416 1.51329H1.73613C1.19443 1.51329 1.03543 1.67122 1.03543 2.21076C1.03543 9.14593 1.03543 16.0811 1.03543 23.0162C1.03543 23.5552 1.18958 23.7062 1.73613 23.7062H12.1243Z" fill="white"/>
<path d="M13.1905 10.2489C14.1795 9.84516 15.2327 9.62137 16.3005 9.58805C17.4351 9.49901 18.5619 9.83755 19.4595 10.5371C20.3572 11.2367 20.9607 12.2467 21.1515 13.3686C21.2027 13.6695 21.2265 13.9744 21.2227 14.2795C21.2284 16.5117 21.2293 18.7439 21.2254 20.9761C21.2254 21.5361 21.068 21.6946 20.5144 21.6946H16.9085C16.3215 21.6946 16.176 21.5523 16.176 20.9745C16.176 19.0858 16.176 17.197 16.176 15.3079C16.1989 14.9719 16.1106 14.6377 15.9246 14.357C15.7386 14.0762 15.4654 13.8645 15.147 13.7545C14.9178 13.6758 14.673 13.6535 14.4333 13.6897C14.1936 13.7258 13.9662 13.8193 13.7704 13.9622C13.5746 14.1051 13.4162 14.2931 13.3087 14.5103C13.2011 14.7275 13.1476 14.9675 13.1527 15.2098C13.1414 16.4975 13.15 17.7857 13.15 19.0734C13.15 19.7202 13.15 20.3708 13.15 21.0192C13.15 21.5221 12.9781 21.6957 12.4844 21.6967C11.5781 21.6967 10.6719 21.6967 9.76564 21.6967C9.28054 21.6967 9.10645 21.5226 9.10645 21.044C9.10645 17.4381 9.10645 13.8321 9.10645 10.2262C9.10645 9.76591 9.2854 9.58697 9.74786 9.58535C10.6162 9.58266 11.484 9.58535 12.3523 9.58535C12.9706 9.58266 13.0482 9.64142 13.1905 10.2489ZM12.1367 20.6629V20.3395C12.1367 18.6314 12.1297 16.9239 12.1432 15.2163C12.1432 14.9026 12.1926 14.5908 12.2898 14.2925C12.4867 13.7234 12.8822 13.2444 13.4038 12.9435C13.9254 12.6426 14.5381 12.54 15.1292 12.6544C15.7019 12.7612 16.2195 13.064 16.5933 13.5108C16.967 13.9576 17.1736 14.5206 17.1775 15.1031C17.1866 16.8489 17.1802 18.5948 17.1807 20.3406V20.6538H20.1948C20.2017 20.6194 20.2066 20.5847 20.2094 20.5497C20.2094 18.3555 20.2255 16.1612 20.2029 13.9669C20.1853 13.2102 19.9169 12.4807 19.4398 11.8931C18.9628 11.3054 18.3041 10.8928 17.5672 10.72C15.9991 10.3928 14.3654 10.6745 12.9975 11.508C12.9149 11.5723 12.8162 11.6127 12.7122 11.6247C12.6082 11.6367 12.5029 11.6198 12.4078 11.5759C12.3145 11.5263 12.2386 11.4493 12.1904 11.3552C12.1422 11.2612 12.124 11.1546 12.1383 11.0498C12.1437 10.9016 12.1383 10.7534 12.1383 10.6132H10.1489V20.6629H12.1367Z" fill="white"/>
<path d="M3.04854 15.6049C3.04854 13.8305 3.04854 12.0563 3.04854 10.2823C3.04854 9.74326 3.21025 9.5848 3.74925 9.58426C4.97099 9.58426 6.19272 9.58426 7.41446 9.58426C7.94106 9.58426 8.09846 9.74111 8.09846 10.2672C8.09846 13.8537 8.09846 17.4402 8.09846 21.0267C8.09846 21.5296 7.9303 21.6956 7.4301 21.6962C6.19004 21.6962 4.95032 21.6962 3.71097 21.6962C3.23018 21.6962 3.05123 21.5199 3.05123 21.0424C3.04836 19.2288 3.04746 17.4163 3.04854 15.6049ZM4.07265 20.6532H7.07921V10.6127H4.07265V20.6532Z" fill="white"/>
<path d="M5.57964 3.03272C5.91166 3.03228 6.24047 3.09764 6.54709 3.22501C6.85371 3.35237 7.13206 3.53922 7.36605 3.77477C7.60005 4.01031 7.78504 4.28988 7.91037 4.59733C8.0357 4.90479 8.09888 5.23403 8.09624 5.56603C8.09155 6.2322 7.82358 6.86947 7.35081 7.33881C6.87803 7.80816 6.23881 8.07148 5.57263 8.07132C4.90171 8.06733 4.25967 7.79785 3.78687 7.32182C3.31407 6.84579 3.04898 6.20193 3.04956 5.531C3.05737 4.86533 3.32745 4.22962 3.80115 3.76187C4.27485 3.29413 4.91392 3.0321 5.57964 3.03272ZM5.57964 7.05691C5.97905 7.05706 6.36232 6.89928 6.64585 6.61797C6.92938 6.33666 7.09018 5.95466 7.09316 5.55526C7.09177 5.15575 6.93325 4.77283 6.65187 4.48923C6.37049 4.20563 5.98883 4.04411 5.58934 4.03958C5.38914 4.03808 5.19064 4.07635 5.00534 4.15216C4.82003 4.22796 4.65162 4.33981 4.50987 4.4812C4.36813 4.6226 4.25588 4.79071 4.17961 4.97583C4.10334 5.16094 4.06458 5.35936 4.06559 5.55957C4.06657 5.75729 4.10652 5.95286 4.18313 6.13514C4.25974 6.31741 4.3715 6.48281 4.51206 6.62187C4.65262 6.76092 4.81921 6.87092 5.00229 6.94557C5.18538 7.02021 5.3814 7.05805 5.57911 7.05691H5.57964Z" fill="white"/>
</svg>