<svg width="102" height="10" viewBox="0 0 102 10" fill="none" xmlns="http://www.w3.org/2000/svg"><path d="M8.4 2.24a.29.29 0 00-.16-.27c-.09-.07-.25-.1-.49-.1h-5.5v2.1h3.33c.22 0 .4-.02.52-.08.13-.06.19-.23.19-.49h.3v2.65h-.3c0-.26-.06-.42-.19-.5a.98.98 0 00-.52-.11H2.24v2.35h5.68c.17 0 .3-.04.41-.12a.37.37 0 00.17-.33h.3v2.33h-.3c0-.17-.06-.26-.17-.29-.1-.02-.24-.03-.4-.03H0v-.3c.08 0 .15-.03.2-.07a.3.3 0 00.1-.24V1.02C.3.92.28.84.2.8A.28.28 0 000 .7v-.3h7.75c.24 0 .4-.04.5-.1.1-.08.15-.19.15-.31h.3v2.24h-.3zM15.91 6.54l.17.09c0 .1.02.2.07.27.08.14.23.27.46.41a5.84 5.84 0 001.75.6 5.26 5.26 0 002.53-.14c.3-.1.55-.22.77-.38a.74.74 0 00.32-.62c0-.26-.1-.46-.3-.58a2.1 2.1 0 00-.79-.27 7.5 7.5 0 00-1.1-.1l-1.26-.1c-.43-.02-.86-.08-1.28-.16-.4-.08-.77-.21-1.1-.4a2.4 2.4 0 01-.78-.76 2.5 2.5 0 01-.3-1.27c0-.35.09-.7.25-1.04.17-.34.42-.64.76-.9s.77-.47 1.3-.63a7.87 7.87 0 014.54.17c.32.1.6.2.8.29.24.1.42.14.57.14.16 0 .27-.04.34-.1l.2.13-1.17 2.13-.17-.07a.94.94 0 00-.14-.4c-.09-.13-.24-.26-.45-.39a5.44 5.44 0 00-1.65-.6 4.86 4.86 0 00-2.49.15c-.21.08-.4.18-.54.32a.62.62 0 00-.2.48c0 .27.1.47.29.6.2.14.46.24.78.31.33.07.7.12 1.1.14l1.28.08c.43.04.85.1 1.26.2.42.07.78.2 1.1.4.33.18.59.43.78.75.2.31.3.73.3 1.24 0 .59-.15 1.07-.47 1.44-.3.38-.69.67-1.15.89-.47.21-.97.36-1.52.44a11.85 11.85 0 01-3.12 0c-.43-.08-.8-.17-1.1-.27-.28-.12-.5-.21-.67-.3a.97.97 0 00-.44-.13c-.08 0-.16.05-.23.14l-.23-.14.93-2.05zM38.9 2.24a.29.29 0 00-.16-.27c-.09-.07-.25-.1-.49-.1h-5.5v2.1h3.32c.23 0 .4-.02.53-.08s.19-.23.19-.49h.3v2.65h-.3c0-.26-.06-.42-.19-.5a.98.98 0 00-.53-.11h-3.33v2.35h5.68c.17 0 .3-.04.4-.12a.37.37 0 00.18-.33h.3v2.33H39c0-.17-.06-.26-.17-.29-.1-.02-.24-.03-.41-.03H30.5v-.3c.08 0 .15-.03.2-.07a.3.3 0 00.1-.24V1.02c0-.1-.03-.18-.1-.22a.28.28 0 00-.2-.09v-.3h7.75c.24 0 .4-.04.5-.1.1-.08.15-.19.15-.31h.3v2.24h-.3zM50.9 1.87a4.27 4.27 0 00-2.47.8 3 3 0 00-.83.93c-.22.38-.32.8-.32 1.28s.1.9.32 1.27a3.2 3.2 0 002 1.53 4.27 4.27 0 003.75-.57c.35-.26.63-.58.85-.96.21-.37.32-.8.32-1.27 0-.48-.1-.9-.32-1.28a3.73 3.73 0 00-2-1.53c-.44-.13-.87-.2-1.3-.2zm0-1.56a6.64 6.64 0 013.67 1.12c.53.37.97.85 1.3 1.43.35.56.52 1.24.52 2.02s-.17 1.46-.51 2.04a4.59 4.59 0 01-1.31 1.41c-.53.37-1.12.65-1.77.82a7.46 7.46 0 01-3.8 0 5.47 5.47 0 01-1.77-.82 4.59 4.59 0 01-1.31-1.41 3.95 3.95 0 01-.51-2.04c0-.78.17-1.46.5-2.02.35-.58.78-1.06 1.32-1.43A6.64 6.64 0 0150.9.3zM64.59.71c-.17 0-.26.11-.26.33 0 .05 0 .12.02.2l.14.4 1.82 4.72h.03l1.8-4.8a1.9 1.9 0 00.14-.52c0-.22-.08-.33-.22-.33v-.3h2.9v.3c-.08 0-.13.03-.17.09a.36.36 0 00-.05.19c0 .1.06.3.17.57l1.82 4.8h.03l1.84-4.9c.08-.17.12-.32.12-.46a.26.26 0 00-.08-.18.26.26 0 00-.2-.1V.4h2.5v.3c-.12 0-.21.07-.28.2-.06.14-.13.31-.2.52L74 7.93l-.2.47c-.04.13-.06.25-.06.34 0 .08.03.15.09.22.05.06.13.08.23.08v.31H71.4v-.3a.86.86 0 00.2-.1c.08-.05.12-.12.12-.2a4.34 4.34 0 00-.25-.78L69.5 2.96h-.03L67.6 7.87c-.17.44-.25.72-.25.83 0 .19.07.3.22.34v.31h-2.64v-.3c.07 0 .14-.02.2-.06.08-.03.11-.09.11-.17a5.82 5.82 0 00-.19-.61L62.34 1.2c-.04-.12-.1-.23-.15-.3a.32.32 0 00-.24-.18v-.3h2.64v.3zM82.8 9.04c.3 0 .44-.1.44-.3V1.02c0-.2-.14-.3-.44-.3V.4h2.82v.3c-.3 0-.44.1-.44.31v7.72c0 .2.15.3.44.3v.31H82.8v-.3zM100.82 2.24a.29.29 0 00-.15-.27c-.1-.07-.26-.1-.5-.1h-5.5v2.1H98c.23 0 .4-.02.53-.08.12-.06.18-.23.18-.49h.3v2.65h-.3c0-.26-.06-.42-.18-.5a.98.98 0 00-.53-.11h-3.33v2.35h5.67c.17 0 .31-.04.41-.12a.38.38 0 00.17-.33h.3v2.33h-.3c0-.17-.05-.26-.17-.29-.1-.02-.23-.03-.4-.03h-7.93v-.3c.08 0 .15-.03.2-.07a.3.3 0 00.1-.24V1.02c0-.1-.03-.18-.1-.22a.28.28 0 00-.2-.09v-.3h7.75c.24 0 .4-.04.5-.1.1-.08.15-.19.15-.31h.3v2.24h-.3z" fill="#fff"/></svg>