<svg width="70" height="51" viewBox="0 0 70 51" fill="none" xmlns="http://www.w3.org/2000/svg">
<path d="M61.49 3C63.983 3 66.002 5.021 66.002 7.512V42.6C66.002 45.09 63.983 47.11 61.49 47.11H7.511C5.02 47.11 3 45.09 3 42.6V7.512C3 5.021 5.02 3 7.511 3H61.49ZM61.49 0H7.511C3.369 0 0 3.37 0 7.512V42.6C0 46.741 3.369 50.11 7.511 50.11H61.49C65.632 50.11 69.002 46.741 69.002 42.6V7.512C69.002 3.37 65.632 0 61.49 0Z" fill="white"/>
<path d="M34.5 32.85C34.145 32.85 33.789 32.724 33.505 32.472L7.00496 8.97199C6.38496 8.42299 6.32796 7.47399 6.87796 6.85499C7.42796 6.23599 8.37596 6.17899 8.99496 6.72799L34.5 29.345L60.007 6.727C60.627 6.176 61.577 6.23399 62.124 6.85399C62.674 7.47399 62.617 8.42199 61.997 8.97099L35.495 32.471C35.211 32.724 34.855 32.85 34.5 32.85Z" fill="white"/>
</svg>