<svg width="70" height="59" viewBox="0 0 70 59" fill="none" xmlns="http://www.w3.org/2000/svg"><path d="M11.97 11.65a1.09 1.09 0 002.18 0c0-1.85 1.37-3.35 3.06-3.35a1.09 1.09 0 100-2.17c-1.7 0-3.19.87-4.15 2.19a5.13 5.13 0 00-4.14-2.19 1.09 1.09 0 100 2.17c1.68 0 3.05 1.5 3.05 3.35zM53.35 7.12a1.09 1.09 0 002.18 0c0-2.73 2.04-4.95 4.55-4.95a1.09 1.09 0 100-2.17 6.64 6.64 0 00-5.64 3.25A6.64 6.64 0 0048.81 0a1.09 1.09 0 100 2.17c2.5 0 4.54 2.22 4.54 4.95zM6.13 28.64v22.55H3.9c-.6 0-1.1.49-1.1 1.09v3.56H1.1a1.09 1.09 0 100 2.17h67.55a1.09 1.09 0 100-2.17h-1.72v-3.56c0-.6-.48-1.09-1.09-1.09H63.6V28.64c0-.6-.5-1.09-1.1-1.09H50.89v-3.7c0-.6-.49-1.08-1.09-1.08H39.65l-3.7-2.1v-1.13h5.6c.6 0 1.1-.48 1.1-1.08v-4.52c0-.6-.5-1.08-1.1-1.08h-5.6v-.17a1.09 1.09 0 00-2.18 0v7.98l-3.7 2.1H19.95c-.6 0-1.1.49-1.1 1.09v3.69H7.23c-.6 0-1.09.49-1.09 1.09zm28.73-6.09l13.84 7.86v.32H21.03v-.32c18.85-10.7 12.46-7.08 13.83-7.86zm3.46 10.36v18.28h-2.37v-3.43a1.09 1.09 0 00-2.18 0v3.43h-2.36V32.91h6.91zm2.18 18.28V32.91h6.91v18.28H40.5zM29.23 32.91v18.28H22.3V32.91h6.92zm35.51 22.93H5v-2.47h59.75v2.47zm-3.32-26.12V51.2H49.59V32.91h.2c.6 0 1.09-.49 1.09-1.09v-2.1h10.54zM48.7 24.94v2.61h-.63l-4.6-2.6h5.23zm-8.24-9.91v2.34h-4.5v-2.34h4.5zm-19.43 9.91h5.22l-4.6 2.61h-.62v-2.6zm-2.18 4.78v2.1c0 .6.48 1.09 1.09 1.09h.2v18.28H8.3V29.72h10.54z" fill="#fff"/><path d="M44.24 42.65c-.6 0-1.09.48-1.09 1.08v2.58a1.09 1.09 0 002.18 0v-2.58c0-.6-.49-1.08-1.09-1.08zM44.24 34.23c-.6 0-1.09.49-1.09 1.09v2.58a1.09 1.09 0 002.18 0v-2.58c0-.6-.49-1.09-1.09-1.09zM34.86 44c.6 0 1.1-.5 1.1-1.1v-1.7a1.09 1.09 0 00-2.19 0v1.7c0 .6.5 1.1 1.1 1.1zM34.86 38.12c.6 0 1.1-.48 1.1-1.09v-1.71a1.09 1.09 0 00-2.19 0v1.71c0 .6.5 1.1 1.1 1.1zM25.49 47.4c.6 0 1.09-.49 1.09-1.09v-2.58a1.09 1.09 0 00-2.18 0v2.58c0 .6.49 1.09 1.09 1.09zM25.49 38.99c.6 0 1.09-.49 1.09-1.1v-2.57a1.09 1.09 0 00-2.18 0v2.58c0 .6.49 1.09 1.09 1.09zM11.88 47.75c.6 0 1.1-.48 1.1-1.08v-1.65a1.09 1.09 0 00-2.19 0v1.65c0 .6.49 1.08 1.1 1.08zM15.29 47.75c.6 0 1.09-.48 1.09-1.08v-1.65a1.09 1.09 0 00-2.18 0v1.65c0 .6.48 1.08 1.09 1.08zM11.88 42.37c.6 0 1.1-.48 1.1-1.08v-1.65a1.09 1.09 0 00-2.19 0v1.65c0 .6.49 1.08 1.1 1.08zM15.29 42.37c.6 0 1.09-.48 1.09-1.08v-1.65a1.09 1.09 0 00-2.18 0v1.65c0 .6.48 1.08 1.09 1.08zM11.88 36.99c.6 0 1.1-.49 1.1-1.09v-1.64a1.09 1.09 0 00-2.19 0v1.64c0 .6.49 1.09 1.1 1.09zM15.29 36.99c.6 0 1.09-.49 1.09-1.09v-1.64a1.09 1.09 0 00-2.18 0v1.64c0 .6.48 1.09 1.09 1.09zM54.44 47.75c.6 0 1.1-.48 1.1-1.08v-1.65a1.09 1.09 0 00-2.19 0v1.65c0 .6.49 1.08 1.1 1.08zM57.85 47.75c.6 0 1.08-.48 1.08-1.08v-1.65a1.09 1.09 0 00-2.17 0v1.65c0 .6.48 1.08 1.09 1.08zM54.44 42.37c.6 0 1.1-.48 1.1-1.08v-1.65a1.09 1.09 0 00-2.19 0v1.65c0 .6.49 1.08 1.1 1.08zM57.85 42.37c.6 0 1.08-.48 1.08-1.08v-1.65a1.09 1.09 0 00-2.17 0v1.65c0 .6.48 1.08 1.09 1.08zM54.44 36.99c1.57 0 .98-2.1 1.1-2.73 0-1.44-2.19-1.44-2.19 0v1.64c0 .6.49 1.09 1.1 1.09zM57.85 36.99c1.56 0 .97-2.1 1.08-2.73 0-1.44-2.17-1.44-2.17 0v1.64c0 .6.48 1.09 1.09 1.09z" fill="#fff"/></svg>