<svg width="67" height="68" viewBox="0 0 67 68" fill="none" xmlns="http://www.w3.org/2000/svg"><path d="M64.97 5.52h-4.56V1.04A.98.98 0 0059.44 0C42.39 0 35.63 3.9 33.52 5.5 31.45 3.87 24.74 0 7.64 0a.97.97 0 00-.98 1.04v4.48H2.04A2.04 2.04 0 000 7.56v48.45a2.06 2.06 0 002.04 2.07H24.6l-.3 1.89a1.07 1.07 0 00.36.98l8.25 6.83c.18.15.4.23.64.22.24 0 .48-.07.67-.22l8.22-6.83a.98.98 0 00.37-.98L42.5 58h22.44A2.07 2.07 0 0067 55.94V7.56a2.05 2.05 0 00-2.03-2.04zM38.03 31.47l3.96-4.89 1.12 1.35a1.08 1.08 0 00.8.36c.14.02.27 0 .4-.06.32-.12 7.17-3.01 14.06-11.95v33.9a68.95 68.95 0 00-16.87 1.95l-3.47-20.66zM25.6 52.17a67.88 67.88 0 00-16.96-2.02V16.13c6.9 9.02 13.85 11.95 14.13 12.07.12.05.25.08.39.06a.98.98 0 00.79-.36l1.1-1.34 4.02 4.88-3.47 20.72zm32.76-39.42c-5.82 8.47-12.17 12.2-14.13 13.23l-8.58-10.3c7.58-.68 17.5-4.7 22.71-9.18v6.25zM24.33 24.24l-1.4 1.68c-2.05-1.04-8.38-4.79-14.23-13.36V6.6c5.24 4.36 15.27 8.38 22.75 9.08l-7.12 8.57zM58.37 2.07v1.6C54 8.47 42.44 13.3 34.5 13.68V7.32c1.28-1.04 7.13-5.1 23.88-5.25zM32.46 7.32v6.37c-7.89-.4-19.44-5.18-23.81-9.97V2.07c16.77.16 22.62 4.21 23.8 5.25zm-8.26 48.7H2.07V7.62H6.6v43.56a.98.98 0 00.97 1.03c5.95-.14 11.88.51 17.65 1.95l-.3 1.86a4.72 4.72 0 00-.73-.02zm9.31 9.64l-7.12-5.9 4.78-28.42c.04-.29-.04-.58-.22-.82l-4.52-5.58 7.08-8.52 7.11 8.54-4.52 5.58c-.18.23-.26.53-.23.82l4.8 28.41-7.16 5.9zm9.23-9.65c-.21 0-.43.02-.64.06l-.3-1.89a66.09 66.09 0 0117.56-1.95.97.97 0 00.98-1.03V7.56h4.53v48.45H42.74z" fill="#fff"/></svg>