<svg width="75" height="63" viewBox="0 0 75 63" fill="none" xmlns="http://www.w3.org/2000/svg"><path d="M24.04 38.99l32.56 14.2c.1.04.2.07.32.06h4.32a5.14 5.14 0 005.13-5.1v-8.8A13.74 13.74 0 0075 26.63a13.67 13.67 0 00-8.63-12.72V5.1A5.1 5.1 0 0061.24 0h-4.35a.93.93 0 00-.26.06l-32.6 14.2a2.9 2.9 0 00-2.83-2.5h-7.01a2.93 2.93 0 00-2.93 2.91H5.14A5.16 5.16 0 000 19.81v13.64a5.13 5.13 0 005.14 5.13h6.08A2.89 2.89 0 0012.56 41l3 18.66A3.93 3.93 0 0019.48 63h5.94a.82.82 0 00.62-.28.81.81 0 00.18-.65l-3.4-21.11a2.91 2.91 0 001.22-1.97zm42.34-23.33a12.13 12.13 0 017.01 10.98 12.08 12.08 0 01-7.01 10.97V15.66zM57.74 1.63h3.5a3.5 3.5 0 013.5 3.48v43.03a3.48 3.48 0 01-3.5 3.49h-3.5v-50zM24.08 16.06L56.1 2.08v49.13L24.08 37.19V16.06zm-12.86 1.55H6.73a3.27 3.27 0 00-3.26 3.25v5.77a.81.81 0 00.82.81.82.82 0 00.81-.81v-5.76a1.62 1.62 0 011.63-1.62h4.49v17.7H5.14a3.53 3.53 0 01-3.5-3.5V19.8a3.5 3.5 0 013.5-3.5h6.08v1.3zm1.63 20.97v-23.9a1.29 1.29 0 011.3-1.29h7.05a1.29 1.29 0 011.29 1.29v23.9a1.28 1.28 0 01-1.3 1.29h-7a1.3 1.3 0 01-1.34-1.29zm11.61 22.8h-4.98a2.34 2.34 0 01-2.32-1.96L14.3 41.5h6.98l3.19 19.9z" fill="#fff"/></svg>