<svg width="28" height="28" viewBox="0 0 28 28" fill="none" xmlns="http://www.w3.org/2000/svg">
<path d="M27.4131 14.8426C27.4014 15.0149 27.3879 15.1867 27.3779 15.3584C27.3281 16.1777 27.2008 16.9904 26.9975 17.7856C26.5084 19.7335 25.5869 21.5463 24.3013 23.0895C23.0136 24.6504 21.3909 25.9012 19.5537 26.7492C18.3925 27.2889 17.1598 27.6591 15.8933 27.8482C14.9861 27.9864 14.0671 28.0304 13.1508 27.9795C11.4093 27.888 9.70234 27.458 8.12533 26.7135C6.55482 25.975 5.14176 24.9401 3.9638 23.6656C2.5935 22.1964 1.57002 20.4387 0.968672 18.5217C0.70311 17.6807 0.522276 16.8151 0.428852 15.9381C0.329878 15.0228 0.323604 14.0998 0.410106 13.1833C0.583476 11.311 1.1501 9.49648 2.07294 7.85829C2.72311 6.69117 3.54375 5.62756 4.50774 4.70256C5.82247 3.43621 7.38061 2.44996 9.08775 1.80356C10.0364 1.44328 11.0229 1.19197 12.0284 1.05449C12.588 0.97672 13.152 0.935604 13.717 0.931403C13.7656 0.931403 13.8149 0.923781 13.8641 0.919678H13.9011C13.9374 0.923781 13.9737 0.930817 14.0107 0.930817C14.8007 0.9379 15.5885 1.01439 16.3651 1.15941C17.5597 1.38062 18.7184 1.76397 19.8092 2.29884C21.02 2.89166 22.1353 3.66236 23.1179 4.58534C24.0304 5.43758 24.8206 6.41198 25.466 7.48082C26.1168 8.55449 26.613 9.71451 26.9401 10.9267C27.1756 11.7898 27.3221 12.6748 27.3773 13.5678C27.3879 13.7395 27.4014 13.9112 27.4137 14.083L27.4131 14.8426ZM26.2309 14.4593C26.2333 11.2148 24.9579 8.09984 22.6807 5.78881C20.4034 3.47777 17.3076 2.15659 14.0634 2.11128C12.4416 2.08452 10.8305 2.37771 9.32215 2.97409C7.81379 3.57048 6.43778 4.45835 5.27283 5.58694C4.10788 6.71553 3.17682 8.0627 2.53291 9.5514C1.88901 11.0401 1.54489 12.6411 1.52023 14.2629C1.49211 15.903 1.79111 17.5322 2.39974 19.0554C3.00838 20.5786 3.91445 21.9653 5.06503 23.1343C6.21561 24.3034 7.58764 25.2315 9.10094 25.8643C10.6142 26.4972 12.2385 26.8221 13.8788 26.8202C15.5021 26.8214 17.1097 26.5024 18.6095 25.8815C20.1093 25.2605 21.4719 24.3499 22.6193 23.2016C23.7667 22.0533 24.6763 20.6899 25.296 19.1896C25.9157 17.6892 26.2334 16.0814 26.2309 14.4581V14.4593Z" fill="white"/>
<path d="M9.46983 18.9115C9.21779 18.7468 8.95756 18.5974 8.72077 18.4174C8.15357 17.9883 7.72263 17.4043 7.47993 16.7358C7.42587 16.6205 7.40747 16.4917 7.42711 16.3658C7.44674 16.24 7.5035 16.1229 7.59011 16.0295C7.46116 15.893 7.32929 15.764 7.20972 15.6245C6.61703 14.9625 6.28628 14.107 6.27953 13.2184C6.26426 13.0802 6.2986 12.9411 6.37644 12.8259C6.45429 12.7107 6.57056 12.6269 6.70448 12.5895C6.7164 12.5838 6.72795 12.5773 6.73905 12.5702C6.57954 12.2596 6.46131 11.9296 6.38737 11.5884C6.19295 10.6725 6.35119 9.71703 6.83049 8.91273C6.88 8.82936 6.94923 8.75942 7.03212 8.7091C7.11501 8.65879 7.209 8.62963 7.30581 8.62418C7.40263 8.61874 7.4993 8.63719 7.5873 8.6779C7.67531 8.71861 7.75196 8.78033 7.8105 8.85763C8.04495 9.12432 8.2794 9.39101 8.5373 9.63484C9.52603 10.5779 10.7313 11.2636 12.047 11.6318C12.4609 11.749 12.8887 11.8176 13.3102 11.9084C13.3296 11.9112 13.3492 11.9123 13.3688 11.912C13.3846 11.7215 13.3922 11.5333 13.4174 11.3475C13.5177 10.5736 13.8585 9.85073 14.3916 9.28082C14.9921 8.61327 15.8108 8.18164 16.7009 8.06343C17.1913 7.99368 17.6908 8.0257 18.1683 8.15751C18.6458 8.28931 19.091 8.51806 19.4762 8.8295C19.696 8.99655 19.6937 9.00006 19.9604 8.92504C20.4544 8.79083 20.9301 8.59674 21.3771 8.34711C21.4582 8.2984 21.55 8.2702 21.6446 8.26495C21.7391 8.25969 21.8334 8.27756 21.9195 8.31698C22.0056 8.3564 22.0807 8.41621 22.1385 8.49121C22.1963 8.56622 22.2349 8.65416 22.251 8.74745C22.2776 8.90774 22.2435 9.07218 22.1554 9.20872C22.088 9.32947 22.0159 9.44728 21.9403 9.57447C22.06 9.53989 22.1875 9.54393 22.3047 9.58603C22.422 9.62812 22.523 9.70612 22.5933 9.80892C22.6635 9.90415 22.7018 10.0191 22.7028 10.1374C22.7039 10.2557 22.6676 10.3713 22.5991 10.4677C22.3097 10.8952 21.9663 11.2834 21.5775 11.623C21.4304 11.7549 21.2762 11.8791 21.1297 12.011C21.1024 12.0374 21.0863 12.0733 21.0846 12.1112C21.0984 13.3168 20.8906 14.5146 20.4715 15.645C20.0534 16.8024 19.4269 17.8733 18.6228 18.8048C17.655 19.935 16.4318 20.8181 15.0545 21.3809C14.2111 21.7261 13.3231 21.9502 12.4169 22.0467C11.6647 22.1316 10.9054 22.1337 10.1527 22.0532C8.65399 21.892 7.21285 21.3865 5.94191 20.5761C5.8585 20.5312 5.78725 20.4667 5.73422 20.3882C5.68119 20.3097 5.64798 20.2195 5.63743 20.1254C5.62689 20.0312 5.63932 19.9359 5.67367 19.8476C5.70802 19.7593 5.76326 19.6807 5.83466 19.6184C5.9038 19.5586 5.98539 19.515 6.07349 19.4907C6.16158 19.4663 6.25398 19.4619 6.344 19.4777C7.21507 19.5812 8.09821 19.4668 8.91418 19.1448C9.09002 19.0774 9.26117 19.0012 9.43466 18.9285C9.44681 18.9238 9.45856 18.9181 9.46983 18.9115ZM19.934 10.1372C19.9173 10.1418 19.901 10.1479 19.8854 10.1553C19.7613 10.2244 19.6165 10.2466 19.4775 10.2177C19.3384 10.1889 19.2144 10.111 19.1281 9.99824C19.1141 9.98162 19.0992 9.96577 19.0835 9.95077C18.7843 9.65529 18.4178 9.43691 18.0156 9.31439C17.6133 9.19187 17.1873 9.16889 16.7742 9.24741C16.3004 9.31721 15.8555 9.51775 15.4895 9.82652C15.1235 10.1353 14.8508 10.54 14.7022 10.9952C14.5309 11.4819 14.5047 12.0079 14.6266 12.5092C14.644 12.5865 14.6449 12.6665 14.6292 12.7441C14.6136 12.8217 14.5817 12.8951 14.5357 12.9595C14.4898 13.024 14.4307 13.078 14.3624 13.1181C14.2942 13.1581 14.2182 13.1834 14.1395 13.1921C13.9396 13.2047 13.7389 13.1968 13.5405 13.1686C12.7485 13.089 11.9697 12.9092 11.2229 12.6335C9.97843 12.1726 8.83841 11.468 7.86969 10.5609L7.61415 10.3235C7.55603 10.4856 7.5146 10.6531 7.49048 10.8235C7.46998 11.4086 7.65309 11.9826 8.0086 12.4477C8.19657 12.6932 8.42184 12.9078 8.67621 13.0836C8.75844 13.1406 8.82476 13.2176 8.86882 13.3073C8.91288 13.3971 8.93322 13.4967 8.92794 13.5966C8.92265 13.6964 8.8919 13.7933 8.83861 13.8779C8.78531 13.9626 8.71124 14.0321 8.62346 14.0801C8.52893 14.1263 8.42538 14.1513 8.32014 14.1531C8.21491 14.1549 8.11055 14.1336 8.01447 14.0906L7.59421 13.9458C7.59755 13.9685 7.60206 13.991 7.6077 14.0132C7.75674 14.4836 8.03256 14.9038 8.40484 15.2277C8.74933 15.5255 9.16411 15.7305 9.60992 15.8232C9.68797 15.8397 9.76175 15.8722 9.82663 15.9187C9.89151 15.9651 9.94609 16.0244 9.98693 16.093C10.0278 16.1615 10.054 16.2377 10.064 16.3169C10.0739 16.3961 10.0674 16.4764 10.0448 16.5529C10.0082 16.6751 9.93462 16.783 9.83416 16.8616C9.7337 16.9403 9.61132 16.9858 9.48389 16.9919L9.09822 17.0342C9.24007 17.1842 9.35613 17.3208 9.48625 17.4444C9.91096 17.867 10.481 18.1115 11.0799 18.1279C11.1986 18.1316 11.3132 18.1722 11.4077 18.2441C11.5023 18.3159 11.5721 18.4154 11.6074 18.5288C11.6474 18.6399 11.652 18.7606 11.6205 18.8744C11.589 18.9882 11.523 19.0894 11.4316 19.1641C11.3367 19.2427 11.2358 19.3142 11.1338 19.3839C10.4739 19.8196 9.74447 20.1393 8.97689 20.3294C8.89659 20.3511 8.81512 20.3692 8.73483 20.388L8.49041 20.4466C8.5029 20.4542 8.51581 20.461 8.52909 20.4671C9.23126 20.7122 9.96254 20.8641 10.7042 20.919C11.6791 20.9839 12.6581 20.8895 13.6026 20.6394C15.1296 20.2422 16.507 19.4069 17.5649 18.2363C18.3242 17.4052 18.9185 16.4373 19.3162 15.3842C19.572 14.7224 19.749 14.0329 19.8437 13.3298C19.9061 12.855 19.9279 12.3758 19.9088 11.8973C19.9 11.7954 19.9168 11.6928 19.9578 11.599C19.9987 11.5053 20.0625 11.4232 20.1433 11.3604C20.1797 11.3268 20.2137 11.2908 20.2452 11.2526C20.1193 11.2505 19.9973 11.2082 19.8971 11.1319C19.7969 11.0555 19.7238 10.9491 19.6884 10.8282C19.6472 10.702 19.6489 10.5657 19.6935 10.4406C19.738 10.3156 19.8228 10.2088 19.9346 10.1372H19.934Z" fill="white"/>
</svg>