<svg width="29" height="28" viewBox="0 0 29 28" fill="none" xmlns="http://www.w3.org/2000/svg">
<path d="M28.7429 13.2916C28.6692 13.8764 28.6185 14.4704 28.5172 15.0506C27.9509 18.2739 26.4498 20.9906 24.0369 23.1916C21.9004 25.1394 19.3863 26.3366 16.5268 26.751C13.2989 27.216 10.2231 26.6911 7.3866 25.0657C3.97918 23.1179 1.73672 20.2216 0.645424 16.4504C0.0652404 14.4474 -0.0268521 12.4029 0.295472 10.3447C0.576354 8.54887 1.17956 6.86819 2.1097 5.31182C2.15114 5.24275 2.19718 5.14605 2.26625 5.12303C2.57016 5.01252 2.66686 4.73164 2.84183 4.50601C2.95234 4.36327 3.1089 4.26196 3.23323 4.12843C3.38057 3.96727 3.52332 3.8015 3.64764 3.62192C3.75815 3.46997 3.8088 3.26736 3.93313 3.12923C4.26927 2.74244 4.62843 2.39709 5.1027 2.16225C5.38819 2.02412 5.61842 1.75705 5.84865 1.51761C6.08349 1.26896 6.35516 1.1124 6.6913 1.06175C6.74195 1.05254 6.82484 1.04793 6.85246 1.08017C7.04586 1.32421 7.24386 1.15384 7.45107 1.1124C7.55697 1.08938 7.73195 1.08477 7.77339 1.14463C7.8793 1.29198 8.02664 1.52221 7.9806 1.65114C7.84246 2.0103 7.63065 2.34644 7.40502 2.66416C7.30372 2.8023 7.09651 2.86676 6.92153 2.97267C7.23004 3.35025 6.97679 3.74164 6.80642 4.13304C6.61302 4.57508 6.39661 5.00792 6.194 5.44535C6.17098 5.49601 6.16637 5.55126 6.15716 5.60652C6.87088 5.62954 7.40041 6.44916 6.6913 7.42074C7.45107 7.36088 8.16018 7.25037 8.81404 6.81753C8.7772 6.76688 8.76338 6.73926 8.74036 6.71163C8.40883 6.33865 8.42264 6.15447 8.86008 5.91042C9.09031 5.78149 9.34817 5.68019 9.61064 5.62033C10.0481 5.51903 10.3244 5.7861 10.2783 6.22814C10.7065 6.23735 13.0089 5.60191 13.7318 5.27498C13.5476 4.94805 13.3864 4.93885 13.1148 5.20131C12.972 5.33945 12.797 5.46838 12.6175 5.53284C12.2629 5.66177 11.982 5.50521 11.8991 5.14145C11.7886 4.65336 11.715 4.15145 11.6275 3.65876C11.5906 3.45155 11.7426 3.44234 11.8807 3.4055C12.378 3.28578 12.8707 3.16146 13.3726 3.03713C13.3588 2.93583 13.3542 2.88058 13.345 2.82993C13.2575 2.22672 13.5476 1.84453 14.16 1.77547C14.381 1.75244 14.6067 1.75244 14.8277 1.76626C15.2237 1.78928 15.3204 1.89979 15.3296 2.305C15.3296 2.36025 15.3388 2.4109 15.3526 2.54904C15.7256 2.47997 16.0801 2.44314 16.4255 2.34644C17.4293 2.06556 18.4239 1.76165 19.4277 1.47616C19.6027 1.42551 19.8007 1.38868 19.9803 1.4163C20.2059 1.44854 20.4223 1.54523 20.6617 1.61891C20.7769 0.988074 21.3939 1.05254 21.8866 0.923609C21.9695 0.900586 22.0984 0.983469 22.1859 1.04793C22.3977 1.19989 22.6003 1.36565 22.8075 1.52682C23.0423 1.70179 23.2726 1.85374 23.5719 1.94123C24.0784 2.08858 24.4421 2.45695 24.6355 2.96806C24.6862 3.1016 24.7783 3.22592 24.8704 3.34104C25.0407 3.56206 25.2249 3.76927 25.3999 3.98569C25.713 3.86136 25.8189 3.8982 26.0261 4.18829C26.9471 5.46838 27.6562 6.85437 28.1166 8.36469C28.4251 9.37771 28.637 10.4184 28.706 11.4774C28.7152 11.6156 28.7429 11.7537 28.7613 11.8872C28.7429 12.3615 28.7429 12.8266 28.7429 13.2916ZM17.9726 25.8945C18.2121 25.7978 18.4469 25.7057 18.6864 25.609C18.6772 25.5676 18.6633 25.5307 18.6541 25.4893C18.5482 25.5077 18.4377 25.5215 18.3318 25.5446C18.0325 25.6136 17.7424 25.7149 17.4385 25.7472C17.1806 25.7748 17.1162 25.6274 17.2359 25.3926C17.2912 25.2867 17.3188 25.1716 17.3602 25.0611C16.3058 25.3235 15.2974 25.5722 14.2889 25.8208C14.4731 25.8577 14.6665 25.8899 14.8599 25.9267C14.8645 25.9498 14.8645 25.9682 14.8691 25.9912C14.7264 26.0557 14.5836 26.1247 14.4225 26.1984C15.127 26.2813 15.127 26.2813 15.3112 26.4793C15.0855 26.3872 14.9244 26.2675 14.7678 26.2767C14.5974 26.2859 14.4317 26.4102 14.312 26.4609C14.2383 26.401 14.1876 26.3688 14.1462 26.3273C13.9666 26.157 13.7548 26.2951 13.5614 26.2629C13.3542 26.226 13.0733 26.3412 12.995 26.005C12.9904 25.9774 12.8983 25.959 12.8477 25.959C12.2537 25.9452 11.6551 25.936 11.0611 25.936C11.0012 25.936 10.9368 26.005 10.8769 26.0419C10.923 26.1017 10.9598 26.1938 11.0197 26.2076C11.2361 26.2583 11.4571 26.2905 11.6735 26.3227C11.9774 26.3642 12.2905 26.3642 12.5806 26.4471C13.3818 26.6773 14.1968 26.6543 15.0119 26.599C15.1684 26.5898 15.3158 26.4655 15.4723 26.4563C15.7348 26.4425 16.0065 26.5069 16.2689 26.4885C16.6741 26.4517 17.0747 26.3734 17.4799 26.3089C17.4753 26.2859 17.4707 26.2629 17.4661 26.2399C17.351 26.203 17.2313 26.1662 17.0517 26.1063C17.3786 25.8945 17.6779 25.8761 17.9819 25.8853C17.8023 25.9313 17.6227 25.9774 17.4431 26.0234C17.4431 26.0557 17.4431 26.0833 17.4431 26.1155C17.6319 26.1293 17.8391 26.1938 18.0141 26.1478C19.2665 25.8162 20.4591 25.3189 21.5643 24.6421C21.4768 24.3428 21.707 24.2507 21.8866 24.1263C21.8405 24.2092 21.7899 24.2921 21.73 24.3934C22.3701 24.2599 24.281 22.7403 24.4836 22.174C23.9172 22.6482 23.1344 22.7634 22.872 23.5231C22.8535 23.5784 22.7845 23.6152 22.7384 23.6613C22.7891 23.4955 22.8443 23.3251 22.8996 23.1409C22.5911 23.2837 22.3102 23.4356 22.0155 23.5415C21.7346 23.6428 21.4676 23.8455 21.0992 23.7672C21.1867 23.6198 21.2557 23.5047 21.3663 23.3205C20.7953 23.4725 20.3072 23.5922 19.8651 23.9191C19.9803 23.9974 20.0539 24.0481 20.1691 24.1309C19.4139 24.7341 18.4792 24.6651 17.6964 24.9414C17.6319 25.0933 17.572 25.2176 17.5306 25.3466C17.503 25.4248 17.4707 25.5492 17.5076 25.5906C17.5536 25.6413 17.6779 25.6551 17.7562 25.632C18.0279 25.563 18.2904 25.4709 18.5574 25.4018C18.6725 25.3742 18.8015 25.3834 18.9442 25.3696C18.8291 25.6827 18.5528 25.8162 17.9726 25.8945ZM5.70131 2.10239C5.54475 2.2037 5.40201 2.33723 5.23624 2.4063C4.73894 2.6043 4.40741 2.99569 4.06666 3.37327C4.01141 3.43313 3.95155 3.50681 3.93773 3.58508C3.85946 3.97648 3.62462 4.22973 3.27927 4.40931C3.2102 4.44155 3.15034 4.51061 3.1043 4.57968C2.95695 4.80071 2.81881 5.02633 2.67607 5.25196C3.16416 5.38089 3.39439 5.26577 3.57397 4.82373C3.69829 4.51982 3.87787 4.26196 4.2048 4.15606C4.29229 4.13304 4.43043 4.13764 4.48568 4.1929C4.53173 4.22973 4.5041 4.37708 4.46727 4.45996C4.37978 4.65796 4.26466 4.84675 4.16336 5.03554C4.17717 5.05396 4.19099 5.07238 4.2048 5.0954C4.38899 5.04475 4.56857 4.94805 4.75275 4.94345C5.6921 4.93424 5.996 4.25276 6.27228 3.54364C6.34135 3.36867 6.3874 3.18448 6.44265 3.0049C6.41963 2.99109 6.40121 2.97727 6.37819 2.95885C6.27228 3.02332 6.17098 3.1016 6.05586 3.14304C5.97758 3.17067 5.86707 3.18448 5.80261 3.14764C5.76117 3.12462 5.75196 2.99569 5.77038 2.92202C5.85786 2.53523 6.26768 2.22672 6.66828 2.21751C6.74195 2.21751 6.84786 2.18988 6.8847 2.13923C7.02744 1.94123 7.15176 1.72942 7.28069 1.52682C7.26228 1.50379 7.24386 1.48537 7.22544 1.46235C6.8847 1.55444 6.54395 1.65114 6.17558 1.75244C6.24465 1.65114 6.2953 1.56826 6.34595 1.48998C6.33214 1.47616 6.31833 1.46695 6.30451 1.45314C6.10191 1.66956 5.89931 1.89058 5.6967 2.107C5.6967 2.1116 5.70131 2.10239 5.70131 2.10239ZM4.63764 22.5792C4.82182 22.7818 5.0014 22.9936 5.1994 23.1824C5.3974 23.3712 5.60921 23.5415 5.82563 23.7027C6.03284 23.8593 6.25386 23.9974 6.46567 24.1448C6.48409 24.1171 6.50251 24.0941 6.52554 24.0665C6.26768 23.827 6.01442 23.5922 5.75656 23.3528C6.24465 23.5323 6.81102 24.1125 6.68209 24.3059C8.07269 25.2176 9.44487 25.8945 10.4993 25.7656C9.90533 25.3834 9.33896 25.015 8.76799 24.6559C8.72194 24.6282 8.63906 24.6282 8.5838 24.6467C8.17399 24.8032 7.85167 24.7341 7.53855 24.4118C7.67209 24.4717 7.80562 24.55 7.94376 24.5914C8.03125 24.619 8.16478 24.6282 8.22464 24.5822C8.43646 24.421 8.62525 24.4671 8.81864 24.5868C9.42645 24.9644 10.0297 25.3512 10.6421 25.7241C10.748 25.7886 10.8815 25.8347 11.0012 25.8393C11.6137 25.8623 12.2307 25.8623 12.8431 25.8899C13.0227 25.8991 13.2575 25.8485 13.2989 26.1386C13.3035 26.1708 13.391 26.2122 13.4371 26.2076C13.8055 26.1616 14.1784 26.1109 14.5468 26.0603C14.5468 26.0373 14.5422 26.0188 14.5422 25.9958C14.3534 25.9452 14.1646 25.8945 13.9758 25.8393C13.9758 25.8024 13.9804 25.761 13.9804 25.7241C15.1086 25.5215 16.2413 25.3374 17.3142 24.8493C17.2267 24.6743 17.1438 24.5177 17.0701 24.3566C16.955 24.0941 16.7662 24.0342 16.5038 24.1355C16.1722 24.2599 15.8453 24.3934 15.5 24.4763C15.196 24.55 14.8783 24.5914 14.5698 24.5822C14.2337 24.5684 13.9988 24.2691 13.985 23.9375C13.9758 23.7027 14.1508 23.4955 14.4731 23.4034C14.6941 23.3389 14.9244 23.2929 15.1546 23.2515C15.5276 23.1824 15.9098 23.1409 16.2781 23.0535C16.4992 22.9982 16.7294 22.8509 16.7018 22.6022C16.688 22.4733 16.4715 22.3351 16.3196 22.2615C15.9512 22.0911 15.6335 21.8747 15.4677 21.4971C15.3848 21.3037 15.2651 21.2484 15.0809 21.2945C14.1508 21.5155 13.2161 21.7319 12.2905 21.9714C12.1294 22.0128 11.9912 22.1648 11.8439 22.2661C11.9544 22.3766 12.0695 22.4871 12.1846 22.5976C12.1984 22.6114 12.2123 22.6206 12.2307 22.6344C12.5116 22.8601 12.4977 23.0903 12.157 23.2146C11.3466 23.5047 10.5131 23.5277 9.69352 23.2515C9.32975 23.1317 9.25608 22.9061 9.3712 22.5423C9.50013 22.1417 9.4771 22.1049 9.04887 22.0865C8.3812 22.0589 7.70892 22.045 7.03665 22.0082C6.69591 21.9898 6.35977 21.9345 5.98219 21.8931C6.41042 22.6206 7.11493 23.0903 7.51553 23.8593C7.26228 23.8086 7.07349 23.7672 6.8847 23.7257C6.87088 23.7534 6.85707 23.781 6.84325 23.8086C7.07809 24.0112 7.31293 24.2138 7.54316 24.4118C7.14256 24.2461 6.82023 24.002 6.61302 23.6244C6.62684 23.5922 6.63605 23.56 6.64986 23.5323C6.84325 23.5738 7.04125 23.6106 7.25767 23.6567C6.76958 23.0765 6.2907 22.5101 5.81642 21.9437C5.80261 21.9299 5.798 21.9069 5.77959 21.9023C5.6967 21.8701 5.61382 21.8332 5.52633 21.8056C5.22242 21.7181 4.91391 21.6536 4.61922 21.5431C4.34755 21.4418 4.05285 21.2945 4.0068 20.986C3.95155 20.6038 3.71211 20.3966 3.44504 20.1986C3.33913 20.1295 3.19639 20.0927 3.07206 20.0374C3.09048 20.1664 3.1089 20.2953 3.12732 20.4242C3.12732 20.4334 3.12271 20.4426 3.12271 20.4518C3.03523 20.2999 2.92932 20.1571 2.87406 20.0006C2.81881 19.8348 2.92932 19.7105 3.08127 19.8026C3.56015 20.0927 4.03443 20.392 4.17257 20.9998C4.19559 21.0965 4.25545 21.23 4.32913 21.2577C4.72973 21.405 5.14415 21.5247 5.58619 21.6629C5.42042 21.2484 5.26847 20.9123 5.14875 20.5624C5.07047 20.3229 5.0981 20.0835 5.30991 19.8993C5.52173 19.7151 5.73814 19.7934 5.96377 19.8809C6.18019 19.9637 6.39661 20.0512 6.62223 20.0927C6.89391 20.1433 7.05967 19.9868 7.04125 19.7151C7.01363 19.2823 6.82944 18.9231 6.46567 18.6791C6.38279 18.6238 6.1894 18.6284 6.0973 18.6883C5.5954 19.0106 4.93233 18.8402 4.69289 18.2923C4.44885 17.7397 4.34294 17.1595 4.47187 16.5241C4.28308 16.5241 4.1081 16.5471 3.94694 16.5195C3.58318 16.455 3.2102 16.4044 2.86486 16.2754C2.22021 16.0314 1.88867 15.5986 2.03602 14.8664C2.13272 14.4014 1.9117 14.1251 1.45584 14.0054C1.17035 13.9317 1.07826 14.0146 1.1197 14.3139C1.14272 14.4981 1.18877 14.6822 1.19798 14.8664C1.20258 14.9493 1.14733 15.0368 1.1197 15.1197C1.03682 15.0921 0.94012 15.0782 0.87105 15.0322C0.760539 14.9585 0.673051 14.8572 0.57175 14.7697C0.544122 14.7835 0.516494 14.7974 0.488866 14.8066C0.737516 15.686 0.976957 16.5701 1.23482 17.445C1.28547 17.62 1.47886 17.7581 1.51109 17.9331C1.62161 18.5225 1.90249 19.0382 2.211 19.5309C2.42281 19.8717 2.69909 20.1756 2.95695 20.4887C3.0076 20.5531 3.12732 20.6498 3.09509 20.438C3.17337 20.5393 3.24704 20.6452 3.32532 20.7465C3.30229 20.765 3.28388 20.7834 3.26085 20.7972C3.15955 20.7511 3.05825 20.7005 2.95695 20.6544C2.93853 20.6775 2.91551 20.6959 2.89709 20.7189C3.42202 21.3175 3.94694 21.9207 4.47647 22.5147C4.52252 22.5562 4.58699 22.5608 4.63764 22.5792ZM1.29007 8.24497C1.18877 8.36469 1.28086 8.63176 1.00458 8.61794C0.986166 8.61794 0.949329 8.65939 0.944725 8.68701C0.857237 9.03236 0.769749 9.38231 0.686865 9.71845C0.834213 9.78292 0.949329 9.82896 1.05524 9.87501C1.5157 10.0822 1.86105 9.87501 1.90249 9.3685C1.9163 9.1751 1.88867 8.95869 1.96235 8.78832C2.03142 8.61794 2.17877 8.44757 2.33993 8.35548C2.44583 8.29562 2.66686 8.33246 2.76816 8.41534C2.93853 8.55348 2.89248 8.76529 2.80499 8.95408C2.74053 9.08762 2.67607 9.22115 2.6162 9.35929C2.50569 9.63096 2.607 9.82436 2.89248 9.82436C3.38057 9.81975 3.86866 9.7691 4.38438 9.73226C4.36136 9.47901 4.34294 9.29482 4.32913 9.11064C4.28308 8.48901 4.4028 7.90423 4.77117 7.38851C4.96457 7.11683 5.21322 6.93265 5.57698 7.03395C5.84405 7.10763 6.07889 7.07539 6.24465 6.83135C6.42884 6.55967 6.42884 6.17749 6.24926 5.91963C5.996 5.92884 5.65986 6.11303 5.52173 5.80912C5.42042 5.5881 5.50331 5.28419 5.50331 4.97568C5.14875 5.06317 4.78959 5.15526 4.43043 5.22894C4.3061 5.25657 4.16796 5.22894 4.03904 5.22894C4.07127 5.0908 4.08969 4.94345 4.14494 4.81452C4.2048 4.68099 4.3015 4.55206 4.39359 4.4001C4.01141 4.31722 3.83643 4.44155 3.67987 4.85136C3.47267 5.3947 3.14113 5.5881 2.55634 5.53284C2.45044 5.52363 2.28467 5.5881 2.23863 5.66638C2.00379 6.09 1.78277 6.51823 1.59398 6.96028C1.5157 7.14446 1.52491 7.36548 1.49728 7.56809C1.47426 7.51744 1.45123 7.47139 1.39598 7.34707C1.26244 7.72004 1.15654 8.01934 1.05063 8.31404C1.08286 8.33246 1.1151 8.35088 1.15193 8.36929C1.19798 8.33246 1.24403 8.28641 1.29007 8.24497ZM27.8404 15.0322C27.8542 15.1427 27.8818 15.2532 27.8818 15.3591C27.8864 15.8564 27.8173 16.3307 27.3983 16.6668C27.3385 16.7129 27.2187 16.7681 27.1773 16.7405C27.1128 16.6991 27.0668 16.5932 27.0668 16.5103C27.0622 16.3215 27.0852 16.1281 27.0944 16.0084C26.6063 16.4826 26.0768 16.9892 25.5611 17.5049C25.5104 17.5555 25.4966 17.6706 25.5058 17.7535C25.5703 18.4074 25.4137 19.0152 25.0914 19.5724C24.8474 19.996 24.4974 20.2815 23.9679 20.2815C23.8343 20.2815 23.6916 20.3275 23.5673 20.3874C23.314 20.5071 23.116 21.0643 23.2818 21.2346C23.512 21.4787 23.7192 21.2438 23.9218 21.1379C23.9541 21.1195 23.9863 21.0965 24.0139 21.0781C24.2165 20.9537 24.4145 20.8294 24.6171 20.7097C24.6401 20.7327 24.6586 20.7511 24.6816 20.7742C24.4744 21.5569 23.7653 22.0266 23.3831 22.7035C24.5941 22.2246 25.5196 21.451 26.1044 20.2861C26.0446 20.3091 25.9939 20.3321 25.9387 20.3551C25.9156 20.3321 25.8926 20.3137 25.8696 20.2907C26.0446 20.0789 26.2518 19.8809 26.3899 19.646C26.5373 19.3974 26.6155 19.1165 26.726 18.8448C26.6938 18.8218 26.6662 18.8034 26.6339 18.7804C26.4544 18.9185 26.2748 19.0566 26.0768 19.2086C26.1689 18.8817 26.5741 18.5225 26.9655 18.435C26.9194 18.6054 26.8918 18.7527 26.8412 18.8955C26.7951 19.0382 26.726 19.1718 26.6708 19.3099C27.4674 18.2002 28.485 14.9447 28.31 14.1159C28.2456 14.2356 28.1903 14.3277 28.1397 14.4244C28.0338 14.627 27.9325 14.8296 27.8312 15.0368C27.9739 14.6961 28.112 14.3553 28.2548 14.0146C28.287 13.9363 28.3607 13.8718 28.3653 13.7935C28.4159 13.3101 28.4528 12.822 28.4942 12.3385C28.4528 12.3477 28.4159 12.3615 28.3745 12.3707C28.31 12.2556 28.2041 12.1497 28.1903 12.03C28.1351 11.5971 28.0982 11.1597 28.0752 10.7269C28.0706 10.644 28.1627 10.5565 28.2502 10.3999C28.1719 10.0039 28.0798 9.52506 27.9739 9.05078C27.9647 9.01394 27.8542 8.95869 27.8081 8.9725C27.6332 9.03236 27.4536 9.09222 27.3016 9.19352C27.1082 9.32706 27.0299 9.49282 27.1819 9.73687C27.3016 9.93026 27.3707 10.1605 27.4167 10.3861C27.5134 10.8512 27.3661 11.2334 27.053 11.4176C26.7306 11.611 26.5188 11.5235 26.4406 11.1643C26.3945 10.9387 26.3669 10.7038 26.3208 10.4782C26.2241 9.99933 26.0446 9.93487 25.6716 10.2526C24.9763 10.842 24.327 11.4866 23.5166 11.9333C23.4706 11.9609 23.4291 12.076 23.4475 12.1267C23.6225 12.5871 23.7975 13.0476 24.0047 13.4942C24.1521 13.8074 24.5665 13.8028 24.7461 13.5081C24.8059 13.4114 24.8427 13.3055 24.9026 13.2134C25.0315 13.0062 25.1881 12.8496 25.4644 12.8864C25.7407 12.9233 25.9202 13.0844 25.9617 13.3423C26.0123 13.66 26.0492 13.9915 26.0077 14.3093C25.9387 14.8526 25.7038 15.0184 25.1513 15.0322C24.7921 15.0414 24.6401 15.1381 24.6125 15.4973C24.5573 16.234 24.7322 16.8971 25.4045 17.3667C25.7176 17.0813 26.0446 16.805 26.3439 16.5011C26.6339 16.2064 26.8918 15.8794 27.1681 15.5663C27.1911 15.5801 27.2095 15.594 27.2326 15.6078C27.2141 15.8933 27.1911 16.1833 27.1727 16.4826C27.5687 16.4044 27.8219 15.9715 27.7851 15.5663C27.7851 15.396 27.8265 15.2118 27.8404 15.0322ZM26.5004 5.78149C26.5188 5.72624 26.5695 5.65717 26.5511 5.62033C26.3485 5.26117 26.1366 4.91122 25.9202 4.55666C25.911 4.53824 25.8512 4.53824 25.8281 4.55206C25.8051 4.56587 25.7821 4.61652 25.7913 4.63954C25.8097 4.6994 25.8466 4.75466 25.8742 4.81452C25.7959 4.75926 25.6992 4.63954 25.6393 4.65796C25.2341 4.77308 24.8381 4.91122 24.4191 5.05396C24.5665 5.23354 24.6954 5.36708 24.8013 5.52363C24.9717 5.77689 24.9118 6.03014 24.6678 6.20051C24.1935 6.53205 23.4614 6.27419 23.3002 5.72163C23.1897 5.34866 23.1436 5.30261 22.7891 5.47759C22.1168 5.80912 21.4583 6.16828 20.8183 6.50442C20.9887 6.80832 21.2189 7.10302 21.334 7.43916C21.5873 8.1713 21.4537 8.33246 20.6848 8.3739C20.6756 8.3739 20.6663 8.3739 20.6571 8.3739C20.3486 8.39232 20.2381 8.49822 20.2473 8.81134C20.2565 9.19813 20.4131 9.53426 20.6756 9.81515C20.74 9.88882 20.8782 9.94408 20.9703 9.93026C21.2742 9.88882 21.5504 9.78292 21.6609 9.45138C21.7208 9.2672 21.7991 9.09682 22.0247 9.08301C22.2549 9.0692 22.4391 9.16589 22.5681 9.35929C22.9318 9.90724 23.1713 10.5104 23.3048 11.1551C23.337 11.3117 23.3416 11.4728 23.3601 11.634C23.3877 11.6524 23.4199 11.6708 23.4475 11.6892C24.0231 11.238 24.6033 10.7913 25.1789 10.3355C25.3631 10.1927 25.5334 10.0316 25.7222 9.89803C26.0031 9.70003 26.1919 9.73687 26.3254 10.05C26.4359 10.3032 26.482 10.5795 26.5557 10.8466C26.5925 10.9755 26.6339 11.0998 26.6708 11.2288C26.8227 11.1735 27.0161 11.1551 27.1174 11.0538C27.2279 10.9433 27.3246 10.7407 27.3062 10.5887C27.2786 10.3309 27.1865 10.0684 27.076 9.82896C26.901 9.46059 26.9102 9.18431 27.1911 8.94948C27.3016 8.85738 27.449 8.80673 27.5825 8.75608C27.7851 8.6778 27.8956 8.5765 27.7989 8.33706C27.67 8.01934 27.5733 7.68781 27.4444 7.37009C27.3983 7.25958 27.274 7.1859 27.2279 7.07539C27.0806 6.69321 26.9517 6.30642 26.7997 5.86898C26.7306 5.97028 26.7076 6.00712 26.6662 6.07158C26.6063 5.96568 26.5511 5.87359 26.5004 5.78149ZM23.1713 12.1359C22.7615 12.3247 22.3609 12.5319 21.9464 12.6884C21.4353 12.8818 20.915 13.0568 20.3855 13.1995C20.0171 13.2962 19.8744 13.1029 20.0079 12.7483C20.0631 12.6009 20.1368 12.4582 20.1967 12.3109C20.298 12.0576 20.2059 11.9056 19.9342 11.9056C19.7961 11.9056 19.6579 11.9287 19.5198 11.9563C18.9258 12.0852 18.3364 12.228 17.8944 12.693C17.6503 12.9509 17.6641 13.0154 17.9542 13.1995C18.0785 13.2824 18.2121 13.3515 18.3226 13.4528C18.6127 13.7199 18.5943 14.0975 18.295 14.3461C18.2167 14.4106 18.1246 14.4612 18.0417 14.5165C17.1852 15.069 16.2229 15.2486 15.2283 15.3315C14.9612 15.3545 14.5744 15.2947 14.4639 15.442C14.3304 15.6216 14.4179 15.9761 14.4317 16.2524C14.4547 16.6622 14.5054 17.0674 14.7494 17.422C14.9474 17.7121 15.0211 17.7535 15.3158 17.5786C15.6013 17.4082 15.8729 17.2102 16.117 16.9892C16.6281 16.5195 17.4661 16.6899 17.7056 17.3345C17.8483 17.7121 17.8483 18.1035 17.7562 18.4903C17.6687 18.8632 17.4063 19.0198 17.0241 18.9738C16.8215 18.9507 16.6143 18.9277 16.4117 18.9231C15.8637 18.9139 15.4954 19.2224 15.2743 19.6829C15.0579 20.1341 15.2881 20.5347 15.523 20.9077C15.5552 20.9583 15.6657 20.9814 15.7348 20.9768C16.1446 20.9583 16.5544 20.9399 16.9596 20.8985C17.9082 20.7972 18.8337 20.5992 19.6764 20.1157C19.7408 20.0789 19.8007 20.0282 19.8974 19.9591C19.7224 19.8671 19.5889 19.8072 19.4599 19.7335C19.1606 19.5631 19.1054 19.3513 19.2942 19.0612C19.3724 18.9461 19.4645 18.8356 19.5751 18.7527C20.2059 18.2785 20.9196 17.993 21.6978 17.8963C22.1398 17.841 22.3194 18.0758 22.2043 18.5133C22.1444 18.7343 22.0569 18.9461 21.9603 19.2178C23.3693 19.2316 24.1889 18.2462 25.2065 17.5463C24.5527 17.0628 24.4698 16.3952 24.4606 15.7183C24.4514 15.0046 24.7 14.7697 25.4091 14.7513C25.6117 14.7467 25.7499 14.6776 25.8097 14.4796C25.9202 14.1343 25.9433 13.7843 25.8143 13.439C25.7268 13.2088 25.4321 13.0752 25.248 13.2042C25.1328 13.2824 25.0546 13.4252 24.9901 13.5587C24.8612 13.8304 24.6908 14.0238 24.3547 14.0146C24.0139 14.0054 23.8712 13.7843 23.7607 13.5127C23.5673 13.066 23.3693 12.6148 23.1713 12.1359ZM13.0503 8.76529C13.1792 9.34087 13.3312 9.88882 13.4187 10.446C13.5015 10.9847 13.0825 11.3669 12.53 11.2978C12.3458 11.2748 12.1662 11.2104 11.982 11.1965C11.7288 11.1781 11.4709 11.1873 11.3005 11.4222C11.0703 11.7537 11.1578 12.6424 11.4433 12.9325C11.6505 13.1443 11.8439 13.1397 12.0143 12.8864C12.1984 12.6194 12.4471 12.5273 12.751 12.5043C13.1286 12.472 13.4417 12.6056 13.7226 12.845C14.1278 13.1949 14.2981 13.66 14.3626 14.1711C14.3995 14.4612 14.4133 14.7605 14.4409 15.0598C14.6527 15.0506 14.8461 15.0368 15.0395 15.0276C15.9973 14.9815 16.932 14.8434 17.7608 14.3093C17.9358 14.1941 18.0693 14.0238 18.2259 13.8764C18.0785 13.7337 17.9312 13.5955 17.7839 13.4528C17.7792 13.4482 17.77 13.4436 17.7608 13.439C17.3879 13.2042 17.3188 12.8818 17.6181 12.5549C18.2581 11.8458 19.1146 11.6524 20.0171 11.634C20.3624 11.6248 20.5604 11.9425 20.4776 12.2832C20.4223 12.5135 20.3118 12.7299 20.2197 12.9785C20.3072 12.9647 20.3993 12.9647 20.4822 12.9325C21.3202 12.5779 22.1582 12.2234 22.9917 11.855C23.0515 11.8274 23.1068 11.6984 23.1022 11.6156C23.0792 10.9018 22.8489 10.248 22.4668 9.64938C22.3931 9.53427 22.2503 9.40994 22.126 9.39152C22.0523 9.38231 21.9234 9.56189 21.8682 9.68161C21.6149 10.2204 20.9012 10.4091 20.4914 10.0085C20.1092 9.63557 19.9342 9.15208 19.9849 8.61334C20.0125 8.30022 20.1737 8.15288 20.4868 8.10683C20.6525 8.08381 20.8229 8.0792 20.9887 8.06539C21.1637 8.05618 21.2281 7.95488 21.1775 7.80292C21.0946 7.54967 21.0071 7.29181 20.8828 7.05237C20.6249 6.55507 20.5789 6.54586 20.0493 6.73005C19.9895 6.75307 19.925 6.77609 19.8651 6.79451C19.3172 6.94186 18.7785 7.12604 18.2213 7.21814C17.4846 7.33786 17.2405 7.03856 17.4707 6.35247C17.5444 6.13144 17.4615 6.04856 17.2681 6.03475C16.6235 5.97489 16.0295 6.14065 15.5 6.51363C15.3112 6.64716 15.3066 6.82214 15.5 6.94186C15.6519 7.03856 15.8361 7.08921 16.0111 7.14907C16.3472 7.25958 16.4577 7.48981 16.2689 7.79372C16.1814 7.93646 16.0387 8.08381 15.8867 8.13446C15.4769 8.2772 15.0533 8.38771 14.6251 8.4798C14.1002 8.59032 13.5706 8.6732 13.0503 8.76529ZM4.62843 9.93026C4.63764 10.1697 4.66526 10.3769 4.65606 10.5795C4.64224 10.9617 4.63764 11.3439 4.57317 11.7169C4.48108 12.2648 4.21862 12.3937 3.71671 12.1865C3.51871 12.1036 3.29769 12.1175 3.25164 12.3293C3.18257 12.6378 3.14574 12.9739 3.19639 13.2824C3.25164 13.6278 3.44043 13.6646 3.73053 13.4482C4.05745 13.2088 4.31071 13.2686 4.43964 13.6554C4.53173 13.9363 4.5962 14.231 4.62843 14.5257C4.68829 15.069 4.72052 15.617 4.76196 16.1741C4.83103 16.1695 4.88168 16.1695 4.93694 16.1649C5.62303 16.1051 6.30912 16.036 6.99521 15.9853C7.40041 15.9577 7.73655 16.1419 8.01283 16.4274C8.23846 16.6622 8.21543 16.9293 7.9806 17.1641C7.90232 17.2424 7.80102 17.4128 7.83325 17.4726C7.90232 17.597 8.04506 17.7443 8.16939 17.7535C8.86929 17.8134 9.53696 17.6522 10.1678 17.3483C10.3244 17.2746 10.329 17.1549 10.2 17.0352C10.0895 16.9339 9.97901 16.8326 9.8731 16.7313C9.52315 16.3906 9.55078 16.1557 10.0158 15.9992C10.7204 15.7597 11.4341 15.5433 12.157 15.3775C12.7878 15.2302 13.4371 15.1657 14.0955 15.0598C14.1094 14.5901 14.1462 14.1021 13.9206 13.6738C13.7732 13.3975 13.5522 13.1351 13.3082 12.9417C12.9858 12.693 12.5116 12.7805 12.2813 13.0614C11.8945 13.5265 11.4617 13.4942 11.1302 12.9831C10.8861 12.6102 10.8631 12.1957 10.8999 11.7721C10.9414 11.2472 11.2821 10.9157 11.8116 10.9064C12.0511 10.9018 12.2905 10.9571 12.53 10.9939C12.8799 11.0492 13.193 10.8282 13.1332 10.5381C13.0181 9.9671 12.8707 9.40073 12.7372 8.84357C12.6681 8.83436 12.6405 8.82055 12.6175 8.82515C11.6321 9.01394 10.6421 9.19813 9.66129 9.40073C9.51394 9.43296 9.38501 9.54808 9.22845 9.63557C9.65208 10.0178 9.72115 10.3723 9.46789 10.6624C9.03506 11.1597 8.01744 11.4222 7.40502 11.1965C6.85246 10.9893 6.72814 10.5151 7.11953 10.0776C7.19321 9.99012 7.27609 9.91184 7.39581 9.77831C6.41963 9.68622 5.53554 9.7691 4.62843 9.93026ZM9.88691 16.386C10.0481 16.5333 10.1954 16.6484 10.3244 16.7819C10.6973 17.1595 10.6329 17.5279 10.1264 17.6937C9.63366 17.8548 9.12255 17.9838 8.61143 18.0482C8.36739 18.0805 8.07269 17.9884 7.85167 17.8594C7.4833 17.6522 7.45567 17.2332 7.73655 16.9661C7.9806 16.7359 7.9806 16.63 7.69511 16.4504C7.57539 16.3721 7.41883 16.3031 7.2853 16.3077C6.47949 16.3537 5.66907 16.4136 4.86787 16.4873C4.80801 16.4919 4.72512 16.5932 4.70671 16.6668C4.56857 17.1595 4.63764 17.6476 4.82182 18.1127C5.01061 18.5778 5.47108 18.7481 5.88549 18.4672C6.15256 18.2831 6.37358 18.3245 6.5946 18.4995C6.98139 18.808 7.23465 19.1994 7.2899 19.6967C7.34055 20.1249 7.07809 20.3828 6.64986 20.3045C6.40581 20.2584 6.17558 20.1387 5.93154 20.0927C5.78419 20.0651 5.58619 20.0697 5.48028 20.1479C5.38359 20.2216 5.35135 20.415 5.34675 20.5577C5.34675 20.6913 5.41582 20.8248 5.46647 20.9537C5.74735 21.6859 5.74735 21.6859 6.53014 21.7365C7.41423 21.7918 8.29832 21.8424 9.1778 21.9069C9.63826 21.9391 9.78561 22.1694 9.62906 22.5746C9.4771 22.9706 9.55078 23.1502 9.97901 23.1824C10.4855 23.2192 11.0012 23.2008 11.5077 23.164C11.738 23.1455 12.005 23.1041 12.18 22.8509C12.0603 22.768 11.9498 22.6989 11.8485 22.6252C11.4341 22.3213 11.4433 22.0496 11.9222 21.8609C12.5069 21.6306 13.1148 21.4556 13.7272 21.2945C14.2107 21.1656 14.708 21.1011 15.2237 21.0044C15.1454 20.857 15.0579 20.7327 15.0119 20.5946C14.9474 20.4104 14.8829 20.2216 14.8783 20.0328C14.8737 19.4296 15.5 18.7389 16.117 18.6745C16.4393 18.6422 16.7662 18.6606 17.0886 18.6929C17.3418 18.7205 17.4753 18.6192 17.4938 18.3936C17.5122 18.1357 17.5306 17.864 17.4707 17.62C17.3142 16.9477 16.734 16.805 16.2275 17.27C15.9742 17.4957 15.6841 17.6891 15.3848 17.8502C15.0303 18.0436 14.7172 17.9699 14.5284 17.6108C14.358 17.2885 14.2337 16.9293 14.16 16.5747C14.0863 16.1972 14.1001 15.8058 14.0725 15.4098C12.6221 15.5019 11.2453 15.8242 9.88691 16.386ZM24.525 21.0044C24.502 20.9814 24.479 20.963 24.456 20.9399C24.3224 21.032 24.1981 21.1333 24.06 21.2116C23.862 21.3267 23.6594 21.451 23.4475 21.5339C23.1989 21.6306 23.0562 21.5155 23.0423 21.2484C23.0101 20.6176 23.4153 20.1249 24.0508 20.0604C24.6448 20.0006 25.0131 19.6875 25.1743 19.1303C25.3032 18.6883 25.446 18.2416 25.2756 17.7443C25.1789 17.8134 25.1052 17.8594 25.0315 17.9147C24.5388 18.2831 24.0554 18.6606 23.5488 19.0106C23.1528 19.2869 22.697 19.4342 22.2181 19.4757C21.8083 19.5079 21.684 19.3421 21.8129 18.9599C21.8497 18.8448 21.8912 18.7297 21.9326 18.6192C22.0708 18.2094 21.9649 18.0436 21.5689 18.1725C20.9703 18.3659 20.3763 18.5916 19.8283 18.8909C19.331 19.1625 19.3678 19.3882 19.8605 19.6691C20.1691 19.844 20.1829 20.0144 19.8974 20.2354C19.7777 20.3229 19.6487 20.4012 19.5152 20.4657C18.7508 20.834 17.9404 21.0274 17.1024 21.1241C16.6465 21.1794 16.186 21.2162 15.6703 21.2669C15.7854 21.4372 15.8499 21.5938 15.965 21.6813C16.2045 21.8701 16.4669 22.0266 16.7294 22.1832C17.0563 22.372 17.1346 22.6529 16.8629 22.9061C16.6695 23.0857 16.4071 23.2376 16.1538 23.3021C15.6795 23.4172 15.1822 23.4495 14.6988 23.5415C14.4869 23.5784 14.2705 23.6613 14.2981 23.9514C14.3258 24.2553 14.5376 24.4763 14.8231 24.4579C15.0579 24.4394 15.2974 24.3704 15.5276 24.3013C15.9098 24.1908 16.2827 24.0434 16.6741 23.9514C17.0609 23.8593 17.1945 23.9375 17.3879 24.2737C17.4892 24.4487 17.572 24.6328 17.6687 24.8308C18.4147 24.6513 19.1468 24.4763 19.9296 24.2875C19.6303 24.0158 19.6211 23.9191 19.902 23.781C20.3302 23.5692 20.7861 23.3988 21.2327 23.2284C21.3386 23.1916 21.4676 23.2238 21.6563 23.2238C21.5366 23.4126 21.4722 23.5231 21.3985 23.6382C21.4491 23.6382 21.4998 23.6521 21.5366 23.6382C22.0385 23.4172 22.5358 23.1916 23.0331 22.9614C23.0884 22.9383 23.1252 22.8693 23.1621 22.8186C23.4337 22.4779 23.71 22.1371 23.9771 21.7918C24.1613 21.5293 24.3362 21.2669 24.525 21.0044ZM11.9222 3.7002C11.9498 3.86597 11.9774 4.01331 12.0004 4.16066C12.0235 4.30801 12.0465 4.45536 12.0695 4.60271C12.134 4.99871 12.3089 5.07238 12.6313 4.83294C12.728 4.75926 12.8062 4.66717 12.8937 4.58429C13.1838 4.31262 13.566 4.31722 13.8377 4.60271C13.9252 4.6948 14.0035 4.80531 14.0679 4.92043C14.4133 5.55587 14.0863 6.0854 13.3588 6.0854C13.1838 6.0854 12.995 6.06698 12.8339 6.12223C12.7326 6.15447 12.599 6.30642 12.599 6.40312C12.6036 7.11223 12.751 7.79832 12.9536 8.49822C13.5246 8.39692 14.0771 8.30943 14.6205 8.19892C14.9566 8.12985 15.2881 8.04237 15.6197 7.94567C15.744 7.90883 15.8683 7.85358 15.965 7.77069C16.0341 7.71544 16.094 7.60032 16.0847 7.51744C16.0801 7.46218 15.9558 7.40232 15.8775 7.37469C15.767 7.33325 15.6381 7.32404 15.5276 7.278C15.0303 7.05697 14.9796 6.60572 15.4125 6.2834C15.9374 5.892 16.5268 5.73084 17.176 5.82754C17.7194 5.91042 17.7885 6.03475 17.6181 6.55507C17.503 6.90963 17.5674 7.01093 17.9312 6.99711C18.7508 6.96028 19.483 6.59651 20.275 6.35247C20.1921 6.24656 20.1368 6.17289 20.077 6.10382C19.7362 5.6848 19.3955 5.26577 19.0593 4.84215C18.8936 4.61192 18.889 4.37708 19.0317 4.14685C19.1652 3.92583 19.3817 3.92583 19.6027 3.95806C19.6671 3.96727 19.727 3.99029 19.7915 3.9995C20.0908 4.03634 20.2611 3.83373 20.1506 3.55285C20.0862 3.39169 19.9895 3.23974 19.8882 3.09699C19.727 2.86216 19.5843 2.84834 19.3494 3.00951C18.889 3.32722 18.4193 3.26736 18.0693 2.82993C17.9312 2.65955 17.8207 2.46616 17.6964 2.27737C17.1162 2.43853 16.5452 2.6089 15.9696 2.75165C15.2927 2.91741 15.0027 2.72402 14.975 2.12542C14.975 2.1116 14.9566 2.09318 14.9382 2.06556C14.5422 2.01951 14.1324 1.96425 13.764 2.2129C13.6075 2.3096 13.5706 2.41551 13.741 2.53062C13.8423 2.59509 13.9528 2.65034 14.0587 2.7056C13.4463 3.44695 12.6589 3.47918 11.9222 3.7002ZM4.41662 9.97631C4.28769 9.99473 4.18638 10.0131 4.08969 10.0224C3.69369 10.0546 3.29309 10.1191 2.89709 10.096C2.50569 10.073 2.35374 9.79673 2.46425 9.42375C2.50109 9.29022 2.59318 9.1705 2.62081 9.03697C2.64844 8.90804 2.68067 8.72846 2.6162 8.64097C2.55634 8.56269 2.34453 8.53506 2.24323 8.58111C2.14193 8.62715 2.05444 8.78832 2.02681 8.90804C1.98537 9.10603 2.013 9.31785 1.98077 9.52045C1.87026 10.1421 1.43282 10.3631 0.87105 10.1098C0.806586 10.0822 0.737516 10.0638 0.650028 10.0362C0.617796 10.1421 0.57175 10.2296 0.567145 10.3171C0.507285 11.3209 0.433611 12.3201 0.405983 13.3239C0.396774 13.6876 0.493471 14.056 0.553331 14.4198C0.580959 14.5994 0.898678 14.8388 1.10128 14.848C1.08747 14.5717 1.05524 14.2955 1.05984 14.0192C1.06444 13.7153 1.2164 13.6278 1.50188 13.7245C1.87946 13.8488 2.12811 14.1067 2.17416 14.5027C2.20179 14.7467 2.14653 15.0046 2.16495 15.2486C2.17416 15.4006 2.211 15.6032 2.3169 15.6907C2.96155 16.2202 3.72132 16.2893 4.55475 16.2202C4.52713 15.7275 4.50871 15.2716 4.47187 14.8204C4.44885 14.5257 4.41201 14.2264 4.34755 13.9363C4.26006 13.5265 4.13573 13.485 3.8088 13.7337C3.51411 13.9593 3.31611 13.9317 3.13653 13.6002C2.88327 13.1259 2.92472 12.624 3.12271 12.1451C3.23783 11.8688 3.52332 11.7951 3.8088 11.9195C4.20941 12.0898 4.37517 12.03 4.41201 11.5879C4.45345 11.0584 4.41662 10.5289 4.41662 9.97631ZM17.945 2.15304C18.0647 2.36486 18.1338 2.5076 18.2167 2.64114C18.4607 3.04634 18.691 3.09239 19.0962 2.84374C19.4553 2.61811 19.8513 2.68718 20.1092 3.02792C20.1967 3.14764 20.275 3.27657 20.344 3.41011C20.4545 3.63113 20.4914 3.86597 20.3394 4.07317C20.1829 4.28038 19.9526 4.24355 19.7224 4.21592C19.5843 4.2021 19.4001 4.22513 19.3034 4.30801C19.1468 4.44155 19.2021 4.63034 19.3264 4.78229C19.6948 5.23815 20.0631 5.694 20.4453 6.14065C20.4914 6.1913 20.6341 6.21433 20.7032 6.1867C21.1498 5.9841 21.5919 5.76768 22.0339 5.54666C22.2411 5.44535 22.4345 5.30722 22.6509 5.22433C23.0654 5.06317 23.3324 5.20591 23.466 5.62494C23.5995 6.04856 23.8666 6.19591 24.304 6.0854C24.7783 5.96568 24.8566 5.71242 24.525 5.34866C24.4882 5.30722 24.4467 5.27038 24.4145 5.22433C24.2211 4.97568 24.2441 4.86517 24.5388 4.74545C24.8105 4.63494 25.0914 4.54285 25.3999 4.43234C25.1236 4.09159 24.8612 3.77848 24.6033 3.46076C24.5112 3.34564 24.3915 3.23053 24.3547 3.09239C24.2349 2.62732 23.9218 2.34183 23.4936 2.24053C23.2081 2.17146 22.9963 2.02872 22.7799 1.86756C22.5358 1.68337 22.2964 1.48537 22.0477 1.30579C21.9787 1.25514 21.8774 1.2091 21.7991 1.22291C21.6103 1.25054 21.4307 1.3104 21.1913 1.37026C21.357 1.49919 21.4906 1.59588 21.6103 1.70179C21.8037 1.87677 21.7945 2.02872 21.5919 2.18067C21.2281 2.44774 20.6664 2.36025 20.4407 1.97346C20.2934 1.72021 20.0908 1.64193 19.8375 1.70179C19.2159 1.83072 18.6081 1.98728 17.945 2.15304ZM28.31 12.0346C28.3515 12.03 28.3929 12.0254 28.4344 12.0208C28.4067 11.6478 28.3791 11.2748 28.3469 10.9018C28.3423 10.8742 28.287 10.8328 28.2548 10.8374C28.2225 10.8374 28.1673 10.8834 28.1673 10.911C28.1719 11.2932 28.1397 11.68 28.31 12.0346ZM9.8731 25.807C9.86389 25.83 9.85468 25.8485 9.84547 25.8715C10.0803 25.9452 10.3151 26.0234 10.55 26.0971C10.5592 26.0649 10.573 26.028 10.5822 25.9958C10.398 25.7702 10.0987 25.8899 9.8731 25.807Z" fill="white" stroke="white" stroke-width="0.2"/>
<path d="M20.9657 17.2194C21.4261 17.0997 21.3709 16.8004 21.2926 16.4873C21.1867 16.0545 21.0946 15.6216 20.9841 15.1151C20.8644 15.3592 20.7723 15.5387 20.6802 15.7229C20.4868 16.1143 20.2888 16.5057 20.1138 16.9063C20.0493 17.0537 20.0125 17.2332 20.0309 17.3898C20.0355 17.4359 20.2796 17.4543 20.4361 17.4865C20.0355 17.6246 19.6349 17.7582 19.2343 17.8963C19.5705 17.7352 19.5659 17.4681 19.4968 17.1734C19.3771 16.6669 19.2527 16.1604 19.133 15.6539C19.0271 15.221 19.0133 15.2072 18.5667 15.1888C18.9811 15.0507 19.4001 14.9125 19.8145 14.7744C19.4738 15.0507 19.4599 15.0691 19.5659 15.5157C19.6764 15.9808 19.7915 16.4459 19.925 16.9938C20.1138 16.5932 20.2704 16.2663 20.4223 15.944C20.542 15.6907 20.6664 15.442 20.7907 15.1934C21.0209 14.7283 20.938 14.581 20.3579 14.581C20.8045 14.4106 21.1775 14.2679 21.5504 14.1251C21.2005 14.3277 21.311 14.6178 21.3709 14.8987C21.4814 15.396 21.5965 15.8933 21.7024 16.3952C21.7807 16.7774 21.8083 16.8004 22.255 16.7912C21.8037 16.9754 21.4215 17.1273 21.0393 17.2793C21.0117 17.2563 20.9887 17.2379 20.9657 17.2194Z" fill="white" stroke="white" stroke-width="0.2"/>
<path d="M18.5022 10.9847C18.2122 10.6578 17.9635 10.3723 17.6734 10.0408C17.5767 10.469 17.4892 10.8512 17.3833 11.3116C17.0334 10.8788 16.7525 10.4828 16.421 10.1421C16.0986 9.81052 15.9283 9.27638 15.3389 9.21192C15.6566 9.11982 15.9743 9.02773 16.292 8.93564C16.0388 9.14745 16.1585 9.30861 16.315 9.48819C16.6696 9.8934 17.0057 10.3124 17.4017 10.7821C17.4202 10.3447 17.7425 9.97629 17.3373 9.63554C17.0518 9.3961 16.909 8.98629 16.4624 8.90341C16.7341 8.82513 17.0011 8.74685 17.3096 8.65936C17.0932 8.96327 17.1485 9.07838 17.632 9.44215C17.8162 8.91722 17.7931 8.8021 17.4386 8.65015C17.6964 8.57648 17.9221 8.51662 18.2352 8.42913C17.8576 8.75145 17.8392 9.14285 17.8069 9.4974C17.7655 9.92563 18.2536 10.05 18.3963 10.3861C18.424 10.3815 18.4516 10.3769 18.4792 10.3723C18.5022 10.1697 18.5253 9.96708 18.5483 9.76908C18.5805 9.47438 18.6128 9.17508 18.6358 8.88038C18.6496 8.67318 18.6818 8.44755 18.3641 8.40611C18.5805 8.35085 18.7969 8.3002 18.9581 8.25876C18.9029 8.46136 18.8246 8.66857 18.7969 8.88038C18.7095 9.51582 18.645 10.1559 18.5667 10.7913C18.5483 10.842 18.5299 10.8834 18.5022 10.9847Z" fill="white" stroke="white" stroke-width="0.2"/>
<path d="M9.05335 14.2908C9.55065 14.3967 9.90981 14.2586 10.0756 13.9271C10.1216 14.1803 10.1585 14.3783 10.1999 14.5993C9.77627 14.6684 9.38488 14.7283 8.97967 14.7927C8.93363 14.4796 8.88298 14.231 9.13623 13.9455C9.59669 13.439 9.22832 12.3385 8.57447 12.122C8.04954 11.9517 7.46015 12.3753 7.45554 13.0015C7.45554 13.3377 7.6167 13.6784 7.71801 14.0099C7.74103 14.079 7.82391 14.1619 7.89298 14.1757C8.27517 14.2724 8.24293 14.5993 8.33963 14.894C8.13703 14.9355 7.95745 14.9723 7.77787 15.0045C7.59828 15.0368 7.4141 15.0598 7.19768 15.092C7.15624 14.8894 7.1148 14.7052 7.06415 14.4474C7.4141 14.8296 7.74103 14.5625 8.08638 14.4934C8.04493 14.4612 8.00349 14.4059 7.95745 14.4013C7.44173 14.3691 7.04113 13.8258 6.98587 13.3239C6.93522 12.8496 7.18847 12.3937 7.66735 12.1405C8.05875 11.9333 8.46856 11.8412 8.906 11.9655C9.35265 12.0898 9.66116 12.3661 9.76707 12.8266C9.88679 13.3607 9.73023 13.7981 9.27437 14.1205C9.2053 14.1803 9.13163 14.2356 9.05335 14.2908Z" fill="white" stroke="white" stroke-width="0.2"/>
<path d="M10.1035 19.3559C9.98835 19.4388 9.90086 19.5032 9.79956 19.5769C9.96072 19.1809 10.1127 18.8125 10.283 18.3935C10.3751 18.4534 10.5087 18.5409 10.6376 18.6238C10.4626 18.8448 10.3107 19.0382 10.1541 19.2316C10.5179 19.4296 10.9829 19.2592 10.9645 18.5363C11.0889 18.5685 11.204 18.6007 11.3375 18.6376C11.25 18.7895 11.1856 18.9 11.1073 19.0382C11.2684 19.0244 11.3882 19.0105 11.5079 18.9967C11.5171 19.0244 11.5263 19.052 11.5355 19.075C11.3836 19.1441 11.2362 19.2131 11.0704 19.2868C11.0981 19.3789 11.1303 19.4802 11.1671 19.5861C11.2869 19.5769 11.402 19.5677 11.5171 19.5631C11.5263 19.5861 11.5309 19.6091 11.5401 19.6322C11.4342 19.6782 11.3283 19.7243 11.1902 19.7841C11.2178 19.89 11.2454 20.0005 11.2776 20.1203C11.4572 20.1203 11.6138 20.1203 11.7749 20.1203C11.7796 20.1433 11.7796 20.1663 11.7842 20.1847C11.646 20.2216 11.5079 20.2538 11.3329 20.2998C11.3651 20.4564 11.3974 20.613 11.4296 20.7649C11.6552 20.7465 11.8532 20.7235 12.0512 20.7143C12.0973 20.7143 12.1433 20.7649 12.1848 20.8524C12.1157 20.8616 12.042 20.8708 11.9729 20.88C11.6322 20.9215 11.2915 20.9537 10.9507 21.0043C10.8632 21.0182 10.785 21.101 10.6422 21.1931C10.5823 21.0274 10.5087 20.8708 10.4718 20.705C10.389 20.3321 10.3337 19.9591 10.2554 19.5861C10.2278 19.5078 10.1587 19.4434 10.1035 19.3559ZM10.7435 20.9215C10.9047 20.8892 11.0336 20.8616 11.1671 20.8294C11.1211 20.659 11.0796 20.5209 11.0336 20.3551C10.9047 20.3873 10.785 20.415 10.6468 20.4472C10.6836 20.613 10.7113 20.7465 10.7435 20.9215ZM10.877 19.7289C10.808 19.3421 10.7251 19.3006 10.4396 19.4756C10.4718 19.5953 10.5041 19.7197 10.5409 19.867C10.6698 19.8164 10.7757 19.7703 10.877 19.7289ZM10.8909 19.8808C10.7896 19.9131 10.679 19.9453 10.5455 19.9913C10.5731 20.1203 10.6008 20.2308 10.633 20.3689C10.7757 20.3183 10.8909 20.2768 11.0106 20.24C10.9829 20.1203 10.9645 20.0328 10.9415 19.9453C10.9369 19.9223 10.9185 19.9131 10.8909 19.8808Z" fill="white" stroke="white" stroke-width="0.2"/>
<path d="M9.76723 18.9876C9.48175 19.3421 9.2331 19.646 8.98445 19.9545C8.99366 19.9729 9.00286 19.9868 9.01207 20.0052C9.20086 19.9499 9.38505 19.8901 9.59226 19.8302C9.54161 19.7565 9.50477 19.7059 9.46793 19.6506C9.48635 19.6414 9.50016 19.6276 9.51398 19.6322C9.72119 19.7105 9.96063 19.7519 9.99746 20.0835C9.74421 19.8716 9.51858 19.9131 9.31137 20.1111C9.55542 20.4426 9.62909 20.8202 9.66593 21.2116C9.6337 21.2254 9.59686 21.2392 9.56463 21.253C9.50937 21.1195 9.4403 20.9906 9.39886 20.857C9.36203 20.7419 9.36663 20.6176 9.339 20.5025C9.25612 20.1756 9.21928 20.1617 8.91998 20.3137C8.69896 20.4242 8.65752 20.2446 8.60226 20.1525C8.75882 19.9822 8.90156 19.8302 9.05812 19.6598C8.81868 19.5309 8.62989 19.425 8.39966 19.3007C8.72659 19.2316 8.83249 19.052 9.02128 18.2831C9.141 18.3613 9.24231 18.4304 9.35282 18.4995C9.14561 18.785 8.95682 19.0336 8.75882 19.3053C8.86933 19.3836 8.95682 19.4434 9.09496 19.5401C9.21468 19.2915 9.32519 19.0704 9.44951 18.8034C9.537 18.8586 9.65212 18.9231 9.76723 18.9876Z" fill="white" stroke="white" stroke-width="0.2"/>
<path d="M9.08571 20.5532C9.09952 20.7327 9.10873 20.9123 9.12254 21.1149C8.86008 20.9998 8.85087 20.9077 9.08571 20.5532Z" fill="white" stroke="white" stroke-width="0.2"/>
<path d="M10.0528 20.7834C9.92384 20.6729 9.79031 20.5624 9.66138 20.4565C9.6844 20.4288 9.70282 20.3966 9.72584 20.369C9.86858 20.4657 10.0113 20.5578 10.1541 20.6545C10.1218 20.7005 10.0896 20.742 10.0528 20.7834Z" fill="white" stroke="white" stroke-width="0.2"/>
<path d="M21.0947 22.9384C21.1591 22.4917 21.2236 22.0405 21.2835 21.5938C21.3341 21.2117 21.2558 21.138 20.8782 21.1886C20.7493 21.2071 20.6158 21.2393 20.4915 21.2209C20.3994 21.2071 20.2428 21.1104 20.2474 21.0597C20.252 20.9124 20.3073 20.7604 20.3809 20.6315C20.4086 20.5854 20.5421 20.5992 20.625 20.5946C20.8184 20.5808 21.0072 20.5762 21.2006 20.5578C21.5828 20.5256 21.6656 20.5762 21.6334 20.9584C21.5874 21.511 21.5183 22.0635 21.4262 22.6115C21.4032 22.7496 21.2604 22.8693 21.1683 22.9937C21.1453 22.9752 21.1177 22.9568 21.0947 22.9384Z" fill="white" stroke="white" stroke-width="0.2"/>
<path d="M24.5344 7.75227C24.6587 7.89041 24.7647 8.04236 24.9028 8.15287C25.0824 8.29562 25.2758 8.42915 25.483 8.50743C25.6672 8.5811 25.8421 8.49822 25.9573 8.31404C26.0724 8.12525 25.9112 8.06078 25.8283 7.94566C25.6626 7.72004 25.5106 7.48981 25.3679 7.24576C25.308 7.14446 25.262 7.00632 25.2804 6.90041C25.3126 6.73004 25.4001 6.57349 25.4692 6.41232C25.5935 6.51823 25.7639 6.60572 25.8329 6.73925C26.1276 7.29181 26.2704 7.89041 26.1691 8.51664C26.0908 9.00473 25.7823 9.13826 25.3679 8.87119C24.9534 8.61334 24.6495 8.25417 24.5344 7.75227ZM25.9204 7.5865C25.9526 7.56808 25.9803 7.54967 26.0125 7.53585C25.8928 7.32404 25.7685 7.11223 25.6487 6.90041C25.6165 6.91883 25.5843 6.93725 25.552 6.95567C25.4968 7.26878 25.7546 7.40232 25.9204 7.5865Z" fill="white" stroke="white" stroke-width="0.2"/>
<path d="M15.4862 5.27037C15.698 4.80069 15.9513 4.33563 15.7348 3.75544C15.3527 3.86595 14.9889 3.97646 14.5975 4.09158C14.6988 4.29879 14.7817 4.46916 14.8784 4.67176C14.3857 4.69939 14.5054 4.15605 14.1462 4.03632C14.4594 3.97186 14.708 3.92121 15.0073 3.85674C14.906 3.7094 14.8369 3.6127 14.7541 3.49298C14.929 3.45614 15.0672 3.36865 15.1685 3.63572C15.2652 3.88437 15.4678 3.66795 15.6243 3.64493C15.721 3.62651 15.8177 3.56665 15.9006 3.58047C16.0433 3.60349 16.117 3.66795 16.117 3.86135C16.1124 4.29418 16.0387 4.69018 15.7671 5.04013C15.6934 5.13223 15.6243 5.22432 15.5507 5.31641C15.5322 5.3026 15.5092 5.28418 15.4862 5.27037Z" fill="white" stroke="white" stroke-width="0.2"/>
<path d="M16.8814 3.84296C16.9137 3.84756 16.9965 3.86598 17.1439 3.89361C16.6742 4.36788 17.2314 4.73165 17.2176 5.19211C16.9091 5.04016 16.9689 4.69942 16.7617 4.51063C16.6466 4.61193 16.5269 4.71784 16.4302 4.80532C16.5683 4.51063 16.7111 4.20212 16.8814 3.84296Z" fill="white" stroke="white" stroke-width="0.2"/>
<path d="M12.3041 25.1393C12.5666 25.1808 12.8291 25.2406 13.0915 25.2544C13.1928 25.259 13.3678 25.19 13.3908 25.1163C13.4231 25.0196 13.354 24.8769 13.2987 24.771C13.2619 24.6927 13.179 24.6374 13.1192 24.573C13.1376 24.5545 13.1606 24.5315 13.179 24.5131C13.3494 24.6927 13.5336 24.8584 13.6763 25.0564C13.7868 25.213 13.6993 25.3281 13.5198 25.3834C13.0823 25.5077 12.6771 25.411 12.2949 25.1946C12.2995 25.1762 12.2995 25.1577 12.3041 25.1393Z" fill="white" stroke="white" stroke-width="0.2"/>
<path d="M10.5963 24.1171C10.495 23.8961 10.6884 23.8869 10.8357 23.8731C11.333 23.8362 11.8165 23.9191 12.277 24.1171C11.729 24.0296 11.1811 23.9329 10.5963 24.1171Z" fill="white" stroke="white" stroke-width="0.2"/>
<path d="M12.3044 25.1394C12.2998 25.1578 12.2998 25.1762 12.2952 25.1947C12.2952 25.3881 12.1893 25.5032 12.0051 25.494C11.7197 25.4755 11.4342 25.4203 11.1487 25.3835C11.1533 25.3558 11.1579 25.3282 11.1625 25.296C11.3651 25.3052 11.5631 25.3236 11.7657 25.3236C11.9315 25.3236 12.111 25.3282 12.1709 25.1072C12.1709 25.1072 12.2584 25.1302 12.3044 25.1394Z" fill="white" stroke="white" stroke-width="0.2"/>
<path d="M10.8032 24.9505C11.0795 24.7203 11.5308 24.8124 11.6275 25.1577C11.3834 24.863 11.1025 24.8722 10.8032 24.9505Z" fill="white" stroke="white" stroke-width="0.2"/>
<path d="M27.0529 12.0392C27.4259 12.3155 27.5318 12.6056 27.343 12.9831C27.2924 13.089 27.1496 13.1535 27.0529 13.241C26.9793 13.1489 26.8457 13.0568 26.8411 12.9601C26.8365 12.7391 26.8872 12.5135 26.9286 12.297C26.9516 12.205 27.0115 12.1221 27.0529 12.0392ZM27.3891 12.67C27.2878 12.5135 27.2095 12.3063 27.145 12.3109C26.9194 12.3247 26.901 12.5503 26.9194 12.7161C26.9332 12.8404 27.0437 12.9555 27.1082 13.0706C27.1957 12.9463 27.2832 12.822 27.3891 12.67Z" fill="white" stroke="white" stroke-width="0.2"/>
<path d="M27.5687 13.241C27.7161 12.6976 27.6332 12.1819 27.4536 11.6247C27.5135 11.68 27.6102 11.726 27.6194 11.7905C27.6654 12.0437 27.7023 12.3062 27.7069 12.5641C27.7207 13.2179 27.7115 13.8764 27.6746 14.5302C27.6746 14.1803 27.6792 13.8257 27.67 13.4758C27.6654 13.3975 27.601 13.3192 27.5641 13.2363L27.5687 13.241Z" fill="white" stroke="white" stroke-width="0.2"/>
<path d="M27.5643 13.2318C27.2051 13.5864 27.2604 14.0514 27.2282 14.4935C27.2236 14.5303 27.2144 14.5625 27.1637 14.5948C27.1637 14.3323 27.1637 14.0699 27.1637 13.7936C26.9519 13.8304 26.8322 14.2034 26.6204 13.9455C26.9473 13.7015 27.2604 13.4666 27.5735 13.2364C27.5689 13.241 27.5643 13.2318 27.5643 13.2318Z" fill="white" stroke="white" stroke-width="0.2"/>
<path d="M1.3684 11.8182C1.39142 12.0438 1.40523 12.274 1.43286 12.4997C1.44668 12.601 1.4743 12.7023 1.50193 12.799C1.59402 13.1029 1.78742 13.2824 1.967 13.2226C2.15579 13.1627 2.23407 12.9095 2.16039 12.5917C2.14658 12.5917 2.12816 12.5917 2.11435 12.5964C2.00384 12.67 1.89333 12.7437 1.78281 12.8174C1.74137 12.6838 1.68151 12.5503 1.65849 12.4122C1.64007 12.3063 1.65388 12.1865 1.6723 12.0806C1.71374 11.8136 1.72756 11.5741 1.35919 11.5465C1.31775 11.5419 1.28551 11.4406 1.23486 11.3669C1.59863 11.3347 1.87951 11.6662 2.23407 11.3899C2.11895 11.3347 2.01305 11.2518 1.88872 11.2242C1.52956 11.1413 1.43747 11.0262 1.46049 10.6532C1.54337 10.7269 1.63086 10.8742 1.73216 10.8834C2.18342 10.9295 2.37221 11.1781 2.33537 11.5511C2.4689 11.6616 2.5656 11.7445 2.6669 11.8228C2.53337 11.8228 2.39983 11.8366 2.2663 11.8182C2.13277 11.7998 2.00384 11.7445 1.81965 11.6892C1.80123 11.9701 1.78742 12.2096 1.769 12.4536C1.79202 12.4674 1.81965 12.4858 1.84267 12.4997C1.90253 12.3891 1.95779 12.2786 2.01765 12.1635C2.34918 12.5043 2.38602 13.1535 2.15579 13.439C2.00844 13.6232 1.78742 13.6416 1.63086 13.4482C1.52956 13.3239 1.44207 13.1627 1.41905 13.0062C1.35919 12.6148 1.34537 12.2142 1.30854 11.8182C1.33156 11.8182 1.34998 11.8182 1.3684 11.8182Z" fill="white" stroke="white" stroke-width="0.2"/>
<path d="M23.1988 3.95351C23.1159 4.02257 23.033 4.09625 22.9639 4.15611C22.5587 3.66341 22.1581 3.17532 21.7437 2.66881C21.6102 3.02797 22.3745 4.11467 22.835 4.29425C22.6738 4.50146 22.4851 4.55671 22.3147 4.35871C22.0246 4.01797 21.7667 3.64039 21.5457 3.249C21.426 3.03718 21.4997 2.79774 21.7161 2.63198C21.9417 2.457 22.1765 2.43398 22.416 2.57212C22.5818 2.66881 22.7291 2.79774 22.8903 2.91286C22.9778 2.84379 23.056 2.78393 23.1619 2.70105C23.3231 2.88063 23.4843 3.051 23.65 3.23518C23.3277 3.41476 23.2586 3.06481 23.0146 2.96351C23.0468 3.0556 23.056 3.11086 23.0883 3.1523C23.1665 3.26742 23.2632 3.36872 23.3369 3.48844C23.4889 3.72788 23.452 3.82458 23.185 3.95811C23.1711 3.83839 23.2034 3.68183 23.1389 3.60816C22.8534 3.27662 22.5449 2.96811 22.2364 2.6596C22.1765 2.59974 22.0752 2.57672 21.9878 2.53528C22.3469 3.03258 22.7291 3.48844 23.1113 3.93969C23.1297 3.96271 23.1711 3.95351 23.1988 3.95351Z" fill="white" stroke="white" stroke-width="0.2"/>
<path d="M2.80968 17.5739C2.96163 17.6614 3.11819 17.7535 3.27014 17.841C3.25633 17.864 3.24712 17.8917 3.2333 17.9147C3.15502 17.9147 3.08135 17.9147 2.95242 17.9147C3.1274 18.4488 3.29316 18.9599 3.45893 19.4757C3.44051 19.4849 3.41749 19.4941 3.39907 19.5033C3.31158 19.3191 3.22409 19.1349 3.14582 18.9645C3.00768 18.9323 2.86954 18.9001 2.75903 18.8724C2.85112 18.7205 2.95242 18.6146 2.97544 18.4903C2.98465 18.4396 2.8327 18.3245 2.74061 18.3015C2.67154 18.2877 2.58405 18.3844 2.45973 18.458C2.45052 18.3567 2.44131 18.2324 2.4321 18.1081C2.57945 18.1265 2.7314 18.1449 2.88335 18.1633C2.86954 17.993 2.8281 17.8088 2.54721 17.7535C2.34461 17.7167 2.15122 17.62 1.88875 17.5279C2.06373 18.0574 2.21568 18.5271 2.37224 19.0014C2.35382 19.006 2.34001 19.0152 2.32159 19.0198C2.26633 18.8724 2.20647 18.7297 2.15582 18.5824C2.04531 18.2554 1.94401 17.9285 1.8335 17.6016C1.82889 17.5832 1.82889 17.5555 1.81968 17.5509C1.56182 17.3621 1.66312 17.0582 1.59866 16.8142C1.57103 16.7037 1.62629 16.5747 1.64471 16.455C1.76443 16.4919 1.90257 16.5011 1.99926 16.5747C2.35382 16.8418 2.6347 17.1733 2.80507 17.5878C2.49656 17.224 2.27094 16.7681 1.7414 16.653C1.58485 17.1687 2.19266 17.6798 2.80968 17.5739Z" fill="white" stroke="white" stroke-width="0.2"/>
<path d="M3.29776 6.64252C3.38985 6.98326 3.25171 7.23191 3.02608 7.45293C3.32999 7.66474 3.40366 7.38386 3.56022 7.26414C3.57403 7.5174 3.41287 7.63251 3.2379 7.69698C3.17804 7.72 2.99385 7.59107 2.99385 7.52661C2.98925 7.39307 3.05831 7.25033 3.11357 7.11679C3.1458 7.03852 3.21027 6.97866 3.22869 6.86354C2.9432 7.28717 2.52418 7.27796 2.09595 7.27796C2.10055 7.07996 2.18344 6.95103 2.38143 6.90959C2.40446 6.90498 2.44129 6.86814 2.4505 6.87735C2.82808 7.20428 3.0399 6.84973 3.29776 6.64252Z" fill="white" stroke="white" stroke-width="0.2"/>
<path d="M4.2049 6.07159C4.15425 6.55507 3.82732 6.86819 3.45435 7.16289C3.59248 6.81293 3.72141 6.46298 3.87797 6.12224C3.9102 6.04857 4.05295 6.03015 4.14044 5.9841C4.16346 6.01633 4.18648 6.04396 4.2049 6.07159Z" fill="white" stroke="white" stroke-width="0.2"/>
<path d="M26.2932 18.633C26.4958 18.26 26.6708 17.864 27.1174 17.7029C27.3431 18.0068 27.1313 18.1864 26.2932 18.633Z" fill="white" stroke="white" stroke-width="0.2"/>
<path d="M5.61828 23.2515C5.50777 23.2422 5.39265 23.2699 5.40186 23.0719C5.40646 22.8831 4.93679 22.4456 4.7434 22.418C4.70196 22.4134 4.65591 22.4502 4.61447 22.4733C4.55921 22.4226 4.50396 22.3674 4.41187 22.2799C4.946 22.2799 5.49395 22.7542 5.61828 23.2515Z" fill="white" stroke="white" stroke-width="0.2"/>
<path d="M5.69679 2.11158C5.74744 2.11158 5.8027 2.11158 5.87637 2.11158C5.5034 2.60888 5.14884 3.08315 4.77126 3.58966C4.87717 3.61268 4.94163 3.6265 5.05675 3.65413C4.95544 3.80608 4.86796 3.94422 4.77586 4.08236C4.75284 4.06854 4.72982 4.05473 4.70219 4.04092C4.73442 3.96264 4.76665 3.88436 4.8127 3.78306C4.72061 3.78306 4.65154 3.78306 4.54563 3.78306C4.67917 3.57585 4.79889 3.39166 4.94623 3.16604C4.78507 3.20748 4.66996 3.2305 4.47656 3.27655C4.63772 3.05092 4.75745 2.88055 4.87256 2.71018C4.89558 2.72399 4.914 2.73781 4.93703 2.75162C4.86796 2.86213 4.79889 2.97264 4.72982 3.08315C4.75284 3.10157 4.77126 3.11539 4.79428 3.1338C5.24093 2.9312 5.46195 2.50757 5.706 2.11158C5.70139 2.10237 5.69679 2.11158 5.69679 2.11158Z" fill="white" stroke="white" stroke-width="0.2"/>
<path d="M21.44 24.2507C21.4032 24.3289 21.3617 24.4026 21.3341 24.4625C21.1315 24.2184 20.9887 24.5315 20.7539 24.4993C21.0026 24.3796 21.1913 24.2829 21.3801 24.1908C21.3939 24.2092 21.417 24.2276 21.44 24.2507Z" fill="white" stroke="white" stroke-width="0.2"/>
</svg>